<?xml version="1.0" standalone="no"?>
<!DOCTYPE svg PUBLIC "-//W3C//DTD SVG 20010904//EN"
 "http://www.w3.org/TR/2001/REC-SVG-20010904/DTD/svg10.dtd">
<svg version="1.0" xmlns="http://www.w3.org/2000/svg"
 width="2328.000000pt" height="1886.000000pt" viewBox="0 0 2328.000000 1886.000000"
 preserveAspectRatio="xMidYMid meet">

<g transform="translate(0.000000,1886.000000) scale(0.100000,-0.100000)"
fill="#000000" stroke="none">
<path d="M18148 18846 c-21 -7 -49 -21 -63 -30 -22 -14 -45 -16 -169 -10
l-144 7 -134 -53 c-199 -79 -328 -152 -328 -185 0 -7 9 -24 21 -38 l20 -26
-22 -30 c-19 -26 -20 -33 -9 -65 18 -54 84 -106 196 -151 120 -48 125 -60 65
-136 -53 -67 -53 -93 -1 -144 22 -21 40 -44 40 -51 0 -11 -42 -35 -88 -49 -22
-6 -23 -5 -17 42 5 38 2 55 -13 79 -23 36 -51 44 -157 44 -91 0 -105 -12 -105
-96 0 -51 -7 -71 -48 -149 -41 -76 -52 -90 -78 -95 -53 -11 -151 -85 -164
-124 -15 -46 -15 -126 0 -171 7 -20 10 -38 8 -40 -2 -3 -28 -2 -56 2 -49 5
-52 7 -52 35 0 29 -23 58 -68 88 -17 11 -26 32 -35 85 -9 48 -18 71 -29 73
-19 4 -87 -76 -121 -144 -16 -31 -41 -61 -66 -78 -37 -26 -41 -33 -41 -72 0
-59 -15 -87 -66 -124 -52 -37 -51 -36 -103 -173 -22 -59 -54 -127 -71 -152
-28 -41 -30 -49 -21 -77 6 -16 9 -34 6 -38 -2 -4 -27 -10 -55 -14 -62 -8 -67
-32 -15 -72 36 -27 46 -54 21 -54 -7 0 -22 -12 -31 -27 -10 -16 -29 -41 -44
-56 -25 -28 -25 -29 -8 -58 12 -21 17 -52 17 -100 0 -38 5 -89 12 -114 11 -42
11 -46 -12 -71 -37 -39 -55 -46 -84 -33 -22 10 -31 8 -74 -20 -27 -17 -54 -31
-61 -31 -7 0 -37 20 -68 45 -50 41 -60 45 -109 45 l-54 0 0 39 c0 24 8 48 21
65 17 22 19 31 11 55 -9 26 -7 34 24 70 26 29 50 45 91 58 30 9 58 23 60 31 9
23 -28 106 -66 145 -20 21 -62 56 -93 77 l-57 38 -103 -4 c-57 -3 -131 -12
-164 -20 -48 -12 -70 -13 -100 -5 -59 16 -159 14 -174 -4 -10 -12 -9 -19 3
-37 42 -61 88 -102 152 -137 l70 -37 6 -60 c13 -124 42 -277 60 -318 10 -24
40 -61 70 -86 58 -49 93 -114 83 -154 -4 -18 0 -33 15 -52 25 -32 26 -49 6
-98 l-15 -36 41 -45 42 -45 -29 0 c-18 0 -47 14 -78 39 l-49 39 -84 -6 c-66
-4 -91 -1 -122 12 -21 10 -51 16 -67 14 -29 -3 -29 -3 -30 -73 0 -87 -27 -175
-64 -210 -15 -15 -50 -32 -76 -39 l-49 -12 -7 -60 c-5 -39 -23 -89 -53 -149
-25 -49 -45 -103 -45 -118 0 -43 26 -84 105 -170 62 -67 73 -84 79 -124 5 -38
3 -50 -13 -65 -11 -10 -24 -25 -29 -34 -8 -14 -13 -14 -50 5 -53 27 -69 26
-84 -3 l-13 -25 -62 40 c-87 55 -113 51 -113 -17 0 -30 -16 -31 -24 -1 -3 12
-19 36 -35 51 -24 23 -40 30 -78 31 -27 0 -71 7 -100 15 -60 16 -78 8 -88 -40
-5 -21 -15 -32 -40 -40 -47 -15 -85 -48 -85 -72 0 -31 56 -78 95 -78 30 0 33
-3 40 -36 6 -34 8 -36 37 -30 27 5 35 1 62 -30 30 -35 33 -36 106 -38 48 -1
87 -8 108 -19 28 -15 32 -23 32 -56 0 -51 -8 -71 -30 -71 -9 0 -37 -11 -62
-24 l-45 -24 -73 24 c-94 32 -122 47 -172 92 -39 35 -45 37 -112 38 -40 0 -96
9 -128 19 -51 16 -57 21 -52 41 6 23 -24 134 -56 206 -18 42 -23 46 -82 62
-55 16 -61 19 -44 30 69 40 82 85 40 135 l-26 31 36 0 c29 0 39 5 48 25 11 24
7 30 -48 87 -71 73 -168 122 -261 133 -52 6 -63 10 -63 25 0 11 -15 30 -32 44
-18 14 -43 44 -56 66 -22 39 -22 41 -3 31 26 -15 82 -13 102 2 9 7 24 27 33
45 23 45 42 36 38 -19 -3 -37 1 -48 22 -68 l25 -24 41 26 c22 15 43 27 47 27
4 0 22 -14 39 -31 42 -40 109 -49 184 -25 28 9 86 19 128 23 64 4 90 1 152
-18 57 -18 98 -24 171 -24 92 0 98 1 180 42 46 23 112 66 145 95 70 60 144
143 144 161 0 7 16 46 36 87 l35 74 -7 105 c-6 94 -10 112 -37 158 -17 28 -41
56 -54 62 -19 9 -23 18 -23 55 0 40 -4 47 -44 80 -53 43 -280 166 -306 166
-10 0 -22 -4 -25 -10 -8 -13 -58 -2 -135 31 -98 41 -202 69 -277 75 -68 6
-106 17 -185 54 -42 19 -248 83 -397 122 -73 19 -74 19 -120 0 -46 -20 -47
-20 -153 0 -118 23 -163 19 -155 -12 4 -15 0 -20 -13 -20 -21 0 -60 -45 -60
-68 0 -12 -3 -13 -11 -5 -8 8 -7 17 5 34 22 32 20 52 -9 79 -25 24 -26 24 -55
6 -36 -21 -75 -13 -65 12 4 10 10 36 12 59 5 41 4 42 -43 72 -43 28 -55 31
-123 30 -122 -2 -153 -20 -118 -69 13 -19 12 -23 -14 -51 -27 -29 -29 -30 -59
-14 -24 12 -48 14 -118 9 -86 -6 -87 -6 -125 24 l-37 30 37 -4 c46 -6 87 14
91 43 2 14 18 29 47 43 68 33 71 41 38 102 -25 48 -33 54 -83 70 -30 9 -83 17
-116 17 -39 1 -78 8 -105 21 -61 27 -95 26 -115 -5 -17 -26 -22 -86 -9 -122 6
-18 4 -23 -9 -23 -12 0 -16 10 -16 44 0 36 -5 48 -26 65 -24 19 -25 21 -10 50
28 52 22 68 -34 86 -41 14 -56 15 -87 5 -61 -19 -83 -38 -83 -68 0 -26 -2 -27
-48 -27 -46 0 -50 2 -75 43 -17 27 -33 42 -47 42 -29 0 -60 -35 -60 -69 l0
-29 -41 20 c-23 11 -56 22 -75 25 -30 5 -34 2 -47 -28 l-13 -33 -24 32 c-26
35 -50 40 -74 16 -30 -29 -18 -57 54 -129 38 -38 68 -70 66 -72 -1 -2 -24 4
-50 13 -60 21 -79 9 -53 -35 16 -28 16 -29 -1 -24 -11 3 -29 -9 -51 -33 -39
-42 -114 -79 -191 -94 -61 -12 -73 -20 -90 -59 -9 -23 -9 -34 1 -52 l12 -23
-28 18 c-16 10 -43 27 -62 38 l-33 20 -17 -29 c-16 -29 -17 -29 -35 -11 -14
14 -34 18 -97 18 -77 0 -79 -1 -130 -41 -58 -47 -69 -74 -47 -117 21 -40 21
-37 -18 -60 -18 -11 -42 -34 -52 -51 -17 -29 -22 -31 -54 -26 -46 8 -79 -17
-120 -89 -40 -68 -38 -96 10 -168 l40 -60 -28 -51 -27 -52 -5 70 c-6 79 -13
95 -41 95 -19 0 -79 -80 -79 -105 0 -6 -7 -21 -16 -34 -13 -18 -18 -20 -25
-10 -21 33 -9 66 36 103 52 43 64 75 41 111 -22 33 -37 32 -89 -7 -23 -18 -71
-46 -105 -62 -34 -16 -62 -33 -62 -38 0 -5 -24 -41 -54 -81 -29 -40 -56 -80
-60 -91 -8 -23 10 -46 35 -46 11 0 19 -4 19 -10 0 -5 -13 -10 -28 -10 -15 0
-52 -16 -82 -36 -30 -19 -76 -46 -102 -60 -39 -19 -49 -31 -57 -62 -6 -21 -24
-51 -41 -67 -16 -16 -30 -38 -30 -50 0 -20 28 -55 44 -55 9 0 155 98 183 123
19 17 31 19 83 14 55 -6 66 -4 113 22 79 44 111 48 41 6 -50 -30 -67 -48 -88
-89 -15 -30 -26 -68 -26 -92 0 -71 -10 -104 -32 -104 -38 0 -58 -19 -58 -56 0
-52 -23 -88 -127 -200 -63 -67 -105 -105 -126 -111 -20 -5 -33 -16 -35 -28 -7
-50 -13 -65 -26 -65 -22 0 -25 -21 -8 -63 l15 -38 -48 -43 -48 -42 13 -52 c7
-29 9 -56 6 -60 -4 -3 -28 -18 -53 -32 -54 -29 -61 -41 -37 -65 10 -10 19 -26
19 -36 1 -10 9 -27 18 -37 22 -24 21 -29 -6 -66 -13 -17 -36 -54 -51 -82 -15
-28 -41 -58 -57 -68 -28 -16 -32 -16 -54 -2 -43 28 -105 12 -105 -27 0 -22 30
-57 63 -74 l32 -17 -63 -13 c-105 -21 -117 -34 -83 -86 17 -27 18 -31 3 -69
-13 -33 -26 -45 -70 -66 -52 -24 -53 -26 -48 -57 6 -29 4 -33 -22 -38 -15 -3
-40 -17 -56 -32 -24 -22 -28 -32 -23 -65 l5 -38 -38 5 c-62 9 -158 -29 -211
-83 -62 -64 -139 -112 -199 -126 -41 -9 -59 -20 -83 -50 -30 -37 -31 -38 -100
-38 -68 0 -71 -1 -131 -48 -84 -67 -178 -132 -234 -163 -42 -23 -47 -29 -50
-65 -3 -35 -7 -41 -43 -56 -21 -9 -41 -22 -42 -30 -2 -7 -12 -35 -21 -63 -10
-27 -22 -79 -27 -114 -5 -40 -18 -79 -34 -103 -33 -49 -32 -65 5 -73 36 -8 60
-43 39 -56 -8 -5 -17 -9 -21 -9 -12 0 -58 -85 -58 -106 0 -10 11 -43 25 -71
22 -48 23 -55 10 -80 -20 -38 -19 -72 5 -121 l20 -42 -23 -47 c-45 -89 -43
-134 6 -160 15 -8 12 -16 -28 -78 -53 -80 -60 -101 -46 -138 9 -22 17 -27 46
-27 19 0 53 7 75 16 22 9 48 13 57 9 17 -6 17 -7 -1 -21 -11 -8 -30 -14 -43
-14 -12 0 -39 -14 -59 -32 -35 -31 -36 -34 -32 -88 4 -52 9 -62 65 -127 72
-83 130 -167 167 -240 36 -72 79 -93 201 -100 125 -8 186 14 325 113 58 41
130 91 160 111 30 20 90 65 133 100 43 34 95 67 116 73 62 16 74 38 79 140 3
50 8 90 13 90 5 0 20 -39 35 -87 16 -54 36 -99 52 -116 20 -21 23 -30 14 -39
-20 -20 -14 -62 17 -110 24 -38 27 -48 16 -59 -14 -15 -45 -190 -45 -254 0
-45 86 -240 131 -296 16 -21 45 -71 64 -113 19 -41 47 -88 61 -105 25 -30 93
-162 108 -209 5 -16 3 -22 -8 -22 -8 0 -28 -12 -45 -26 -29 -24 -31 -30 -31
-92 0 -85 22 -133 86 -194 l48 -47 -27 -6 c-38 -10 -50 -37 -42 -96 6 -39 14
-55 46 -84 32 -28 45 -34 62 -28 27 9 57 9 162 -1 l80 -8 31 38 c43 55 54 78
54 117 0 75 10 97 52 114 21 8 54 33 73 56 32 37 37 39 76 34 23 -3 60 -19 84
-36 24 -17 53 -31 65 -31 39 0 76 28 95 72 10 24 37 86 60 138 32 71 49 127
65 220 13 77 31 143 46 172 24 46 24 50 18 212 l-7 164 32 48 c42 64 47 89 28
140 l-16 43 72 45 c85 53 124 69 132 56 22 -36 89 26 196 179 51 73 59 91 59
130 0 29 7 57 20 76 11 17 20 37 20 46 0 22 -36 102 -70 156 -16 24 -31 66
-35 94 -11 80 -50 108 -120 85 -16 -5 -26 4 -53 49 -35 58 -39 60 -90 46 -23
-7 -41 -6 -58 1 -25 12 -25 14 -17 72 11 83 9 204 -4 242 -10 30 -9 31 24 43
54 20 68 64 47 144 -10 34 -18 96 -18 137 -1 75 -1 75 58 170 81 130 116 210
116 265 0 39 3 45 21 45 11 0 50 24 87 53 37 30 87 65 112 78 39 21 46 29 50
64 8 55 16 65 55 65 27 0 39 7 58 33 38 50 97 167 97 192 0 14 18 37 51 65 56
47 83 96 73 135 -3 14 -21 44 -40 67 -19 24 -34 50 -34 59 0 30 42 114 69 136
24 19 26 27 26 93 0 62 3 74 20 84 11 6 48 39 81 74 l62 62 69 0 c54 0 80 5
119 25 50 26 104 33 104 15 0 -20 49 -60 73 -60 31 0 52 -25 66 -77 7 -24 30
-62 56 -91 27 -30 43 -56 40 -66 -3 -9 -7 -23 -10 -31 -4 -14 -9 -13 -34 6
-24 18 -37 20 -74 15 -55 -8 -62 -17 -71 -81 -9 -73 -93 -318 -124 -363 -54
-77 -61 -84 -94 -91 -39 -8 -91 -77 -109 -144 -18 -70 -32 -92 -63 -95 -18 -2
-33 -13 -44 -33 -10 -16 -24 -29 -33 -29 -23 0 -35 -18 -48 -75 -8 -36 -28
-72 -67 -119 -29 -38 -54 -70 -54 -72 0 -13 47 -127 67 -161 16 -27 23 -55 22
-80 -1 -21 8 -66 20 -100 11 -34 21 -73 21 -85 0 -13 8 -43 17 -68 11 -32 15
-75 14 -152 -1 -87 3 -117 20 -160 17 -45 20 -71 18 -178 -3 -134 7 -175 51
-215 19 -17 36 -20 105 -19 77 0 82 -1 72 -17 -9 -15 -7 -23 13 -44 28 -29 37
-31 62 -8 16 14 23 15 57 3 63 -20 164 -8 244 30 62 29 71 31 93 19 38 -20
103 19 171 102 46 57 63 71 121 95 37 15 86 35 109 45 24 10 86 30 138 44 52
14 116 37 142 50 25 14 57 25 70 25 30 0 50 11 126 66 32 24 63 44 68 44 17 0
9 -27 -16 -50 -33 -31 -32 -43 11 -79 47 -38 81 -47 104 -26 13 12 23 13 44 5
41 -15 77 -12 114 10 22 14 41 18 60 14 28 -7 72 -41 72 -56 0 -4 -39 -8 -87
-8 -98 -1 -120 -9 -158 -60 -14 -19 -31 -36 -38 -36 -7 -1 -29 -2 -49 -3 -31
-1 -39 -5 -44 -26 -5 -20 -12 -25 -39 -25 -18 0 -37 -6 -43 -12 -13 -16 3
-113 25 -147 23 -36 5 -43 -94 -40 -75 3 -96 8 -129 29 -37 24 -46 26 -169 25
l-130 -1 -46 -47 c-43 -43 -50 -47 -95 -47 -55 0 -134 -39 -282 -137 -96 -64
-122 -106 -122 -198 0 -67 7 -84 36 -95 l24 -9 -25 -37 c-26 -38 -24 -56 9
-83 9 -7 18 -29 21 -50 12 -67 25 -90 62 -102 34 -11 90 -8 126 6 15 6 17 0
18 -46 0 -30 4 -113 8 -184 5 -114 9 -134 30 -163 16 -23 21 -40 17 -58 -13
-50 -53 -99 -100 -122 l-47 -24 -33 26 c-52 39 -78 88 -71 129 6 31 3 37 -27
58 -55 38 -128 112 -128 130 0 9 -6 22 -14 28 -16 14 -35 6 -96 -40 -19 -15
-57 -34 -85 -44 -27 -9 -59 -24 -69 -33 -30 -27 -56 -93 -56 -147 0 -52 -31
-140 -67 -191 -50 -72 -56 -229 -13 -330 12 -27 21 -65 20 -84 -6 -103 -1
-171 16 -202 72 -136 103 -234 88 -280 -8 -25 -74 -24 -142 2 -60 23 -200 28
-220 8 -13 -13 -16 -97 -4 -113 4 -6 24 -23 45 -38 41 -31 41 -42 -2 -52 -16
-3 -60 -25 -97 -47 -60 -36 -75 -41 -124 -39 -93 3 -114 10 -138 45 -33 49
-27 65 11 28 37 -36 52 -40 65 -14 12 23 6 39 -35 89 -66 80 -157 93 -338 45
-193 -51 -291 -98 -352 -170 -56 -65 -107 -89 -239 -112 -72 -12 -112 -25
-140 -44 -25 -17 -52 -26 -77 -26 -21 0 -53 -6 -71 -14 l-34 -14 -6 32 c-12
64 -29 76 -107 76 l-69 0 0 35 c0 32 -5 39 -62 75 -33 22 -70 40 -80 40 -32 0
-164 -66 -180 -89 -14 -20 -30 -24 -130 -33 -62 -5 -116 -15 -119 -20 -4 -6
-4 -18 -2 -28 7 -26 -13 -33 -47 -18 -34 15 -35 16 -15 42 8 11 15 32 15 46 0
21 7 28 32 35 28 8 34 15 36 44 5 53 -5 78 -36 89 -37 13 -82 -6 -101 -41 -9
-18 -23 -27 -38 -27 -33 0 -143 76 -143 99 0 10 -6 34 -14 52 -7 19 -12 48 -9
66 3 17 0 48 -7 68 -11 34 -15 36 -49 34 -20 -1 -51 5 -70 15 l-35 18 31 13
c38 16 44 32 30 84 -10 35 -9 44 3 51 8 4 33 25 55 45 22 21 65 52 95 69 67
38 83 71 57 119 -27 49 -15 67 45 67 48 0 96 17 131 48 12 10 17 30 17 62 0
40 -4 50 -25 64 -13 9 -39 16 -57 16 -57 0 -78 30 -78 112 0 46 6 62 45 120
42 63 45 72 45 133 0 52 5 72 22 95 21 29 21 31 5 65 -9 19 -22 35 -28 35 -26
0 -176 -43 -197 -56 -13 -9 -55 -44 -94 -80 -67 -62 -71 -64 -123 -64 -29 0
-83 -9 -119 -20 -62 -19 -68 -24 -90 -68 -39 -78 -95 -242 -110 -322 -13 -64
-13 -79 0 -108 18 -45 18 -76 -2 -93 -40 -33 -58 -115 -31 -138 8 -6 28 -14
45 -17 17 -3 42 -18 56 -33 22 -23 25 -35 27 -111 1 -47 -4 -104 -11 -127 -13
-42 -13 -42 39 -119 28 -42 51 -79 51 -84 0 -4 -22 -25 -50 -46 -27 -21 -50
-41 -50 -44 0 -3 7 -15 15 -27 8 -11 17 -40 20 -64 4 -24 8 -54 10 -65 4 -18
-1 -22 -33 -27 -60 -8 -91 -25 -104 -54 -7 -16 -13 -30 -15 -32 -1 -2 -21 13
-43 33 l-41 37 -102 -7 c-137 -9 -169 -20 -182 -62 -8 -28 -13 -32 -30 -25
-11 4 -67 7 -125 7 -124 0 -207 -22 -293 -77 -52 -33 -57 -40 -57 -72 0 -40 0
-39 -35 -23 -24 11 -26 16 -21 51 7 42 -5 67 -33 67 -27 0 -79 -73 -94 -133
-8 -31 -24 -68 -36 -83 -12 -15 -21 -34 -21 -43 0 -44 -71 -163 -137 -227 -51
-51 -67 -73 -65 -91 3 -18 -2 -23 -20 -24 -13 -1 -27 -1 -32 0 -15 3 -35 -20
-29 -35 6 -18 4 -17 -40 1 -30 12 -41 13 -74 1 -53 -18 -56 -47 -9 -95 l35
-36 -72 0 c-65 0 -77 -3 -119 -33 -54 -37 -52 -37 -250 -53 -180 -15 -174 -10
-187 -170 -8 -101 -12 -114 -39 -148 -62 -77 -91 -89 -259 -104 -180 -17 -196
-25 -244 -122 -17 -36 -38 -65 -45 -65 -34 0 -132 33 -164 55 -20 14 -48 25
-62 25 -27 0 -30 6 -44 100 -7 44 -27 60 -76 60 -27 0 -46 8 -72 31 -44 38
-80 37 -84 -3 -2 -15 1 -36 7 -46 8 -15 6 -23 -9 -37 -29 -27 -27 -85 5 -115
33 -31 33 -88 0 -176 -14 -36 -25 -75 -25 -85 0 -27 -13 -24 -43 11 -29 32
-42 35 -81 21 -18 -8 -28 -6 -37 5 -9 11 -24 13 -53 9 -55 -7 -87 11 -106 61
-8 23 -21 48 -28 57 -20 23 -109 39 -157 27 -22 -5 -105 -10 -185 -10 -163 0
-195 -10 -219 -68 -12 -28 -11 -35 9 -67 19 -30 21 -41 11 -61 -6 -14 -25 -30
-41 -36 -38 -13 -37 -23 4 -123 l33 -80 46 3 c41 3 53 -1 90 -31 23 -19 65
-46 93 -60 47 -24 53 -31 70 -84 22 -67 49 -80 89 -43 23 22 23 22 34 2 6 -12
20 -24 32 -27 19 -6 19 -8 5 -31 -9 -13 -16 -30 -16 -39 0 -20 58 -135 68
-135 5 0 5 -23 2 -50 -7 -56 17 -133 58 -185 12 -15 22 -41 22 -57 0 -42 15
-65 57 -87 34 -17 35 -19 15 -25 -14 -5 -22 -15 -22 -29 0 -31 10 -42 45 -54
20 -6 36 -22 48 -47 l18 -39 -26 -27 c-22 -23 -28 -41 -35 -106 -8 -87 -58
-289 -91 -371 -12 -29 -34 -73 -50 -98 -16 -25 -29 -58 -29 -74 0 -27 -105
-282 -135 -328 -22 -32 -89 -64 -150 -70 -80 -8 -150 12 -193 57 -51 52 -85
66 -176 73 -75 5 -81 8 -120 44 -56 54 -83 63 -184 63 -136 1 -207 19 -288 72
-38 25 -104 63 -146 84 -63 31 -78 43 -80 63 -2 17 -12 29 -30 35 -23 8 -31 6
-52 -17 -33 -35 -55 -34 -129 7 -34 19 -104 49 -155 67 -80 27 -97 37 -124 73
-77 100 -85 106 -158 106 -37 0 -80 -4 -96 -10 -16 -5 -48 -14 -71 -20 -56
-14 -74 -33 -67 -69 8 -40 -24 -50 -70 -23 -99 58 -174 50 -248 -26 -44 -45
-46 -49 -45 -103 1 -31 -5 -74 -13 -98 -13 -40 -12 -42 14 -69 26 -29 26 -29
6 -47 -12 -11 -20 -31 -20 -49 0 -39 -21 -117 -49 -179 -14 -32 -21 -69 -21
-108 0 -33 -9 -101 -21 -152 -11 -50 -27 -127 -34 -170 -15 -81 -27 -104 -105
-197 -26 -30 -55 -77 -65 -105 -30 -84 -56 -129 -93 -160 -19 -17 -40 -46 -46
-65 -16 -49 -86 -100 -137 -100 l-39 0 0 -53 c0 -53 0 -54 -37 -65 -36 -11
-40 -17 -72 -97 -37 -96 -37 -97 32 -126 22 -9 27 -17 23 -33 -28 -112 -18
-136 55 -136 56 0 58 -5 37 -87 -9 -36 -20 -52 -55 -76 -43 -31 -43 -31 -43
-93 0 -42 -5 -65 -15 -74 -9 -7 -15 -29 -15 -50 0 -29 -9 -50 -39 -87 -21 -26
-48 -57 -60 -67 -48 -43 -8 -126 47 -97 58 31 192 -13 288 -94 59 -50 70 -55
112 -55 31 0 55 7 72 20 26 21 94 27 105 10 3 -5 26 -10 50 -10 61 0 75 -8 75
-40 0 -29 48 -95 98 -137 24 -19 25 -24 15 -42 -20 -32 -17 -121 4 -136 14
-11 15 -17 5 -39 -22 -50 41 -189 93 -202 14 -3 28 -16 31 -28 7 -28 63 -66
99 -66 16 0 43 -5 61 -12 29 -10 36 -9 54 7 11 10 25 34 30 54 6 20 17 44 24
54 21 28 79 32 147 12 59 -18 62 -18 117 0 31 11 68 30 83 42 47 40 165 22
261 -39 32 -20 68 -33 110 -38 35 -4 75 -13 89 -18 46 -18 188 -26 214 -12 22
12 28 9 72 -27 63 -52 78 -56 119 -37 40 19 64 49 64 80 0 14 21 41 56 73 55
51 64 55 137 65 23 3 52 17 73 35 l35 31 37 -19 c21 -11 59 -22 85 -26 42 -6
53 -4 88 20 41 26 41 28 35 72 -7 54 2 73 63 133 25 25 63 68 85 96 31 41 55
59 127 94 76 38 91 50 111 87 l23 43 -50 50 -50 51 1 118 2 119 42 62 c60 88
153 177 213 206 29 13 58 24 64 24 7 0 20 15 29 33 22 42 31 47 79 41 56 -7
100 21 109 71 4 20 5 44 2 53 -4 12 4 22 27 35 44 23 211 50 266 43 25 -4 78
-9 117 -12 l72 -6 56 75 c73 96 128 119 229 97 46 -11 58 -10 85 4 18 10 32
24 32 35 0 10 9 47 20 82 21 66 20 109 -6 130 -18 15 -18 57 1 89 19 33 19 96
-1 128 -14 25 -14 30 8 78 44 94 61 108 136 114 63 5 68 7 83 37 25 49 37 60
73 67 42 8 86 -11 86 -36 0 -30 19 -58 40 -58 10 0 32 -16 48 -36 29 -35 32
-36 76 -30 25 4 78 4 116 0 l71 -7 -6 -27 c-6 -26 -1 -31 72 -73 143 -82 202
-108 221 -98 9 4 46 12 82 15 47 5 79 16 114 37 42 27 48 34 44 59 -4 28 -1
31 59 55 34 13 90 47 125 75 58 47 65 50 117 49 31 -1 69 4 85 10 44 18 116
82 166 149 36 48 53 62 85 71 38 10 42 8 75 -23 41 -40 199 -143 287 -189 l63
-32 0 -76 c0 -91 21 -167 55 -199 41 -39 50 -81 29 -147 -17 -54 -17 -56 2
-70 48 -35 123 -111 139 -142 9 -19 20 -55 24 -80 6 -44 8 -46 46 -54 97 -20
113 -28 140 -63 15 -20 33 -55 40 -78 8 -30 20 -45 44 -57 17 -9 45 -35 61
-58 16 -22 43 -47 58 -55 22 -11 37 -33 58 -87 27 -68 32 -73 81 -96 28 -13
59 -35 68 -49 32 -49 131 -85 150 -54 3 5 11 7 18 5 7 -3 31 -6 53 -8 36 -2
48 -10 94 -60 52 -57 60 -87 23 -87 -27 0 -63 -28 -63 -50 0 -10 7 -25 14 -33
19 -18 88 -8 116 18 17 15 24 16 45 7 28 -13 32 -34 10 -52 -21 -17 -19 -47 4
-59 13 -7 41 -6 90 3 71 14 72 14 87 -9 17 -26 18 -40 8 -106 -6 -41 -4 -48
20 -67 15 -11 46 -23 69 -27 23 -4 63 -20 88 -36 25 -16 52 -29 60 -29 8 0 30
-39 53 -97 22 -53 55 -116 73 -140 34 -45 36 -65 18 -185 -3 -21 4 -35 32 -61
42 -41 37 -61 -13 -51 -20 4 -47 1 -65 -6 -25 -11 -29 -17 -24 -34 11 -34 6
-69 -19 -158 -50 -172 -46 -192 46 -221 112 -35 158 -11 180 95 11 53 17 63
53 86 48 33 75 82 75 137 0 35 6 47 48 88 27 27 57 47 68 47 118 -8 134 2 134
79 0 36 -5 49 -25 66 -23 18 -24 23 -13 52 11 30 9 35 -29 90 -35 50 -48 60
-89 72 -27 7 -61 24 -75 38 l-27 25 40 116 c41 119 83 196 100 186 6 -4 19
-26 29 -49 16 -36 26 -45 75 -64 31 -11 75 -21 97 -21 63 0 91 -31 146 -162
l19 -46 75 -7 c42 -4 80 -5 85 -1 5 3 14 31 20 63 37 201 36 180 3 221 -16 21
-52 59 -80 85 -33 31 -51 56 -51 71 0 31 -15 41 -78 55 -80 17 -145 55 -223
130 -61 59 -78 70 -126 81 -92 20 -193 69 -255 122 l-57 50 40 50 c30 38 39
59 39 88 0 21 -6 42 -12 48 -7 5 -85 12 -173 14 -187 4 -226 17 -310 97 -27
26 -73 64 -101 84 -69 49 -113 134 -155 297 -17 69 -40 142 -50 162 -11 21
-19 55 -19 76 0 76 -29 122 -76 122 -9 0 -32 17 -50 38 -18 22 -66 61 -106 88
-136 92 -207 182 -208 264 0 52 23 118 47 135 30 21 39 92 16 139 -16 34 -16
40 -3 64 25 44 137 112 185 112 22 0 62 7 89 15 61 19 87 19 111 1 18 -13 17
-15 -16 -29 -32 -13 -37 -20 -44 -63 -4 -27 -7 -65 -7 -84 0 -48 28 -181 39
-189 5 -3 26 -19 46 -35 30 -23 43 -27 72 -22 42 8 46 14 56 90 18 133 18 134
51 138 35 6 65 -26 46 -49 -8 -10 -8 -20 0 -36 6 -12 21 -46 33 -75 16 -38 41
-71 92 -117 63 -59 67 -65 43 -65 -32 0 -34 -22 -7 -64 13 -19 18 -39 14 -57
-4 -22 1 -31 32 -54 20 -16 55 -58 79 -95 24 -36 62 -81 85 -99 23 -18 48 -47
55 -65 19 -45 62 -93 117 -130 37 -25 46 -35 37 -44 -7 -7 -18 -12 -25 -12
-17 0 -29 -50 -14 -59 6 -4 87 -13 179 -21 156 -12 170 -15 209 -42 23 -15 51
-41 62 -56 12 -17 68 -54 138 -92 132 -70 148 -80 258 -164 46 -35 96 -84 123
-122 31 -42 62 -72 94 -89 53 -29 59 -44 27 -74 -19 -17 -20 -23 -8 -54 10
-28 10 -41 0 -65 -11 -25 -10 -35 4 -62 12 -23 13 -35 6 -44 -6 -7 -8 -27 -5
-44 4 -19 0 -47 -10 -72 -17 -42 -20 -131 -7 -165 5 -11 5 -29 1 -40 -6 -15 1
-36 24 -75 25 -42 39 -56 66 -63 35 -9 40 -13 92 -87 28 -39 32 -52 30 -100
-2 -53 -1 -56 33 -78 21 -13 44 -40 54 -63 10 -22 33 -51 51 -64 69 -51 140
-127 140 -149 0 -13 -16 -40 -35 -60 -38 -41 -47 -93 -21 -116 18 -14 81 12
96 40 9 17 12 17 45 2 24 -11 35 -23 35 -37 0 -37 30 -125 43 -125 7 1 31 5
54 9 l42 8 -19 -51 c-13 -33 -34 -64 -61 -86 -38 -33 -40 -37 -28 -63 8 -18
20 -27 36 -27 19 0 23 -5 23 -31 0 -48 16 -69 54 -69 19 0 44 -9 57 -19 23
-19 24 -24 21 -139 -1 -76 2 -123 8 -127 6 -4 24 -36 40 -71 29 -65 30 -65 67
-62 30 2 41 9 56 36 19 32 19 35 3 75 -15 39 -15 43 1 55 25 18 38 9 35 -22
-3 -22 5 -35 37 -63 40 -33 41 -36 40 -96 0 -92 11 -121 48 -125 36 -4 52 13
60 65 13 83 84 179 75 100 -2 -14 5 -46 16 -70 17 -37 26 -46 74 -64 47 -18
62 -20 97 -11 52 13 53 33 6 100 -20 27 -33 53 -30 58 7 12 -24 128 -46 171
-10 20 -43 60 -74 90 -56 53 -66 73 -42 82 31 12 68 -6 82 -39 12 -28 20 -33
59 -39 25 -4 66 -4 91 -1 l45 7 0 45 c0 43 -2 46 -37 60 -54 23 -82 52 -88 93
-4 20 -8 46 -11 57 -6 31 17 36 94 23 59 -11 72 -17 122 -64 40 -38 65 -54 93
-58 34 -5 39 -3 47 19 16 41 12 76 -11 101 -16 16 -24 41 -28 90 -4 37 -15 86
-26 108 -20 40 -20 40 -71 37 -51 -4 -51 -4 -80 42 -16 25 -38 49 -48 52 -11
4 -27 15 -35 24 -9 10 -40 26 -69 35 -29 9 -56 23 -59 31 -3 8 -23 17 -44 20
l-38 6 28 27 c44 41 47 66 15 104 -26 31 -26 32 -6 35 11 2 39 -6 62 -18 23
-12 54 -20 68 -18 23 3 27 8 30 38 3 31 -6 46 -67 120 -39 47 -85 114 -103
150 -19 39 -52 83 -85 114 -45 43 -53 56 -53 86 0 19 9 53 20 75 l19 40 -1
-42 c-1 -23 2 -46 6 -50 4 -5 42 -20 84 -34 l77 -26 5 -44 c8 -59 28 -88 67
-95 40 -8 93 1 118 20 17 12 18 18 7 40 l-12 26 41 -20 c38 -20 42 -20 65 -5
29 19 31 49 4 93 -16 25 -17 32 -5 32 7 0 20 -12 27 -27 19 -40 72 -52 126
-27 57 24 54 45 -12 93 -30 23 -57 45 -61 51 -3 5 -32 10 -63 10 -68 0 -85 9
-80 41 2 17 20 33 63 57 33 18 76 49 96 69 25 24 43 33 55 29 21 -6 85 11 162
44 l50 22 31 -23 c27 -20 48 -24 138 -29 l107 -5 9 -35 c13 -52 24 -60 84 -60
38 0 69 8 106 26 l52 26 -24 -26 c-13 -14 -45 -33 -70 -42 -58 -22 -71 -32
-71 -56 0 -25 28 -78 41 -78 6 0 31 14 56 32 l47 31 -51 -60 c-43 -52 -54 -74
-78 -163 l-29 -102 26 -23 c15 -12 50 -28 78 -35 50 -12 54 -11 111 19 49 26
61 29 65 16 4 -9 -7 -30 -25 -50 -25 -29 -31 -44 -31 -82 0 -40 9 -61 55 -134
30 -48 55 -91 55 -96 0 -5 -6 -17 -13 -27 -12 -16 -15 -16 -57 3 -49 23 -95
27 -105 10 -4 -6 -1 -45 5 -88 13 -75 12 -79 -9 -108 -58 -78 47 -148 163
-109 58 20 96 12 135 -28 31 -32 31 -34 20 -78 -10 -38 -9 -55 6 -112 10 -37
31 -87 47 -112 l28 -45 -22 -30 -23 -31 33 -30 c29 -25 39 -29 73 -24 21 3 58
8 82 11 l42 5 -56 -29 c-62 -33 -75 -45 -84 -82 -11 -44 12 -53 97 -36 40 8
81 18 91 22 14 6 17 2 17 -18 0 -35 17 -77 31 -77 22 0 79 50 119 106 23 30
47 54 54 54 7 0 45 -23 84 -50 39 -28 78 -50 87 -50 8 0 21 11 27 25 l12 26
19 -31 c10 -16 27 -30 37 -30 10 0 40 -16 66 -35 126 -90 137 -95 183 -95 42
0 49 4 97 56 49 52 54 55 88 49 19 -4 40 -13 47 -21 20 -24 45 -16 63 22 13
29 17 61 15 151 -1 68 3 119 9 125 6 6 73 11 159 12 134 2 154 0 207 -21 33
-13 70 -23 83 -23 40 0 81 -28 124 -85 30 -40 65 -69 127 -107 142 -86 217
-85 382 6 52 29 125 67 163 86 96 47 137 93 137 153 0 25 66 136 114 191 26
31 37 37 48 29 7 -6 31 -14 54 -17 26 -5 58 -22 89 -47 51 -42 71 -47 113 -25
42 22 122 109 131 142 8 33 49 61 74 51 27 -10 20 -58 -18 -133 -19 -38 -35
-73 -35 -78 0 -6 12 -22 26 -37 24 -26 26 -35 34 -175 4 -82 13 -162 19 -178
6 -15 51 -108 100 -205 48 -97 91 -186 95 -197 5 -16 -7 -43 -44 -103 -44 -70
-50 -87 -50 -134 0 -33 -12 -87 -30 -143 -24 -67 -32 -114 -37 -194 -5 -98 -8
-110 -45 -177 l-39 -73 28 0 c25 0 33 8 62 67 29 59 34 82 41 178 5 78 15 132
34 184 16 46 26 96 26 130 0 50 6 65 50 136 33 54 50 91 50 113 0 23 -32 99
-101 236 l-102 203 -8 129 c-4 71 -8 143 -9 161 0 19 -10 43 -24 60 l-24 28
29 51 c39 70 46 129 20 172 -25 39 -58 42 -115 9 -26 -15 -42 -33 -51 -59 -13
-40 -96 -128 -120 -128 -8 0 -35 16 -61 35 -25 19 -58 38 -72 41 -15 3 -42 12
-60 20 -45 20 -47 19 -97 -27 -56 -51 -131 -172 -140 -224 -4 -22 -13 -50 -21
-62 -7 -12 -64 -47 -126 -79 -62 -32 -142 -73 -178 -91 -41 -21 -87 -36 -120
-40 -50 -5 -62 -1 -125 32 -93 49 -129 77 -164 129 -32 45 -89 86 -121 86 -10
0 -52 12 -92 26 -65 24 -82 26 -168 21 -52 -2 -124 -1 -159 4 -62 9 -66 8 -92
-16 -26 -26 -27 -28 -26 -155 1 -131 -4 -153 -25 -132 -7 7 -36 12 -65 12 -51
0 -54 -2 -107 -56 -66 -69 -78 -68 -181 12 -39 29 -84 58 -100 64 -20 7 -39
27 -58 60 -32 57 -40 64 -67 55 -15 -5 -20 -15 -20 -45 l0 -39 -80 51 c-78 49
-80 50 -105 34 -14 -9 -41 -41 -61 -71 -43 -64 -64 -76 -64 -37 0 72 -20 87
-69 53 -23 -16 -131 -45 -131 -35 0 9 100 53 155 69 71 20 85 30 85 61 0 31
-29 38 -103 25 -93 -15 -206 -20 -214 -8 -3 5 9 23 28 39 33 28 33 29 14 41
-41 25 -71 66 -88 119 -20 63 -21 93 -6 136 13 39 -5 78 -58 121 -31 25 -46
31 -87 31 -27 0 -64 -5 -81 -11 -38 -14 -104 -4 -112 17 -3 8 5 26 18 40 22
23 22 27 12 91 -7 37 -10 69 -8 71 1 2 26 -6 54 -18 57 -25 72 -23 97 16 30
44 22 82 -34 169 -64 98 -68 136 -21 181 26 24 30 34 25 62 -3 19 -10 40 -17
48 -18 21 -65 17 -109 -11 -22 -14 -49 -25 -60 -25 -24 0 -90 26 -90 36 0 3
12 45 26 93 29 95 61 136 179 230 74 59 115 81 154 81 24 0 28 -3 24 -19 -5
-22 11 -33 70 -49 33 -9 41 -8 59 10 17 17 19 28 14 64 -5 41 -4 44 18 44 31
0 36 -8 26 -36 -11 -29 13 -59 39 -48 9 4 79 11 156 16 203 13 231 30 158 94
-48 41 -38 54 46 61 53 5 65 10 81 33 11 16 20 32 20 37 0 6 -22 36 -50 67
-38 44 -50 65 -50 90 0 46 20 60 72 52 24 -4 87 -9 141 -12 l99 -6 34 37 c27
30 38 36 61 31 266 -53 312 -59 336 -43 18 12 27 31 36 79 7 35 14 71 17 81 7
23 254 225 359 293 122 78 332 157 456 172 54 7 118 9 143 6 40 -6 51 -3 87
21 26 18 42 39 46 57 6 30 28 36 63 18 27 -14 44 -73 30 -101 -21 -37 0 -44
138 -44 114 0 132 2 170 23 41 22 45 22 68 7 35 -23 40 -44 15 -61 -31 -22
-26 -36 30 -82 58 -47 80 -51 109 -22 23 23 24 29 10 64 -5 14 -8 26 -7 26 10
-1 114 -36 219 -74 70 -25 134 -46 142 -46 8 0 27 18 43 39 45 64 61 68 125
32 84 -47 125 -42 202 27 86 76 120 83 581 119 l70 5 60 74 c33 40 82 92 109
116 68 58 155 237 163 336 l5 67 -81 95 c-63 74 -85 109 -102 160 -34 101 -59
134 -121 158 -29 11 -67 24 -84 27 -18 3 -40 15 -50 27 -40 45 -139 62 -209
37 -27 -10 -40 -7 -105 21 -41 17 -109 45 -150 62 -41 16 -104 48 -139 70 -87
55 -360 147 -458 155 l-73 6 -6 34 c-7 39 -39 83 -61 83 -8 0 -33 -16 -56 -35
-23 -20 -47 -33 -55 -30 -7 3 -19 5 -27 5 -7 0 -18 13 -25 30 -7 16 -29 45
-50 64 -32 28 -48 35 -101 40 -97 10 -120 16 -126 33 -4 10 2 21 13 29 48 33
49 36 14 64 -50 41 -34 50 90 50 124 0 114 -8 123 95 3 27 9 51 15 53 5 1 17
9 27 16 17 12 17 16 2 60 l-16 48 28 36 c18 23 33 59 40 96 10 52 9 61 -9 86
-16 23 -29 28 -79 34 -52 6 -62 11 -85 41 -14 18 -26 36 -26 39 0 3 21 8 47
12 36 5 58 17 92 49 26 23 60 49 76 58 17 8 67 53 113 100 78 81 82 87 82 130
0 51 -12 65 -64 74 -33 5 -41 1 -84 -40 -27 -24 -64 -53 -83 -62 -19 -10 -66
-40 -106 -66 -54 -37 -81 -49 -109 -49 -47 0 -109 -35 -133 -76 -11 -18 -37
-44 -58 -57 -47 -30 -58 -43 -67 -81 -7 -27 -10 -28 -46 -23 -47 6 -116 -24
-125 -55 -6 -18 -8 -18 -19 -3 -6 9 -30 19 -53 22 -45 6 -39 15 -59 -87 -3
-19 -20 -42 -44 -61 -41 -33 -66 -79 -79 -149 -5 -25 -9 -35 -10 -22 -1 32
-23 37 -68 13 -51 -27 -83 -56 -83 -74 0 -20 155 -183 251 -263 l81 -67 34 16
c19 9 34 21 34 27 0 5 11 17 24 25 22 15 28 15 53 1 40 -20 57 -7 50 38 -5 32
-3 37 29 56 18 12 44 20 56 18 22 -3 23 -7 20 -65 -2 -34 2 -71 8 -82 21 -40
-34 -91 -98 -91 -35 0 -91 -18 -113 -36 -8 -8 -36 -14 -62 -14 -40 0 -49 -4
-71 -32 -13 -18 -31 -50 -40 -71 -8 -20 -23 -40 -33 -43 -43 -13 -140 -61
-175 -87 -28 -20 -38 -34 -38 -55 0 -37 -24 -68 -70 -92 -49 -25 -76 -25 -132
-1 l-44 20 -12 117 c-7 65 -17 123 -23 130 -6 7 -27 18 -47 25 -20 7 -53 23
-72 35 -20 13 -50 27 -68 30 -28 6 -34 4 -39 -15 -8 -32 -69 -30 -84 3 -17 36
-4 68 41 99 22 16 49 46 60 66 12 25 30 42 52 50 124 47 148 68 148 130 0 45
-16 51 -90 36 -50 -11 -79 -12 -128 -4 -69 12 -86 6 -103 -39 -11 -28 -15 -27
-181 5 -68 13 -88 21 -88 34 0 28 38 66 74 73 39 8 49 25 40 72 -8 44 -26 48
-159 42 -95 -5 -107 -8 -149 -38 -26 -17 -66 -40 -90 -51 -38 -16 -46 -26 -65
-76 -12 -32 -35 -73 -51 -92 l-28 -33 -30 21 c-17 11 -37 21 -46 21 -27 0 -19
-48 15 -90 25 -31 30 -44 24 -67 -8 -35 -67 -133 -94 -157 -18 -17 -20 -16
-34 4 -9 13 -23 20 -34 18 -15 -3 -19 -16 -23 -78 -5 -65 -2 -87 23 -160 21
-64 26 -96 22 -127 -7 -45 -7 -45 -90 -63 -27 -6 -58 -13 -67 -16 -12 -4 -19
2 -24 20 -11 44 -29 51 -71 25 -50 -30 -53 -35 -53 -91 0 -43 3 -49 30 -63 17
-9 30 -18 30 -20 0 -3 -13 -29 -30 -58 l-29 -52 3 -225 3 -225 -56 -1 c-44 -1
-59 -6 -73 -24 -30 -37 -40 -99 -36 -215 l3 -111 -60 -30 c-58 -29 -60 -32
-60 -69 0 -38 2 -39 47 -54 32 -10 50 -21 54 -35 9 -31 82 -151 104 -171 12
-11 22 -38 26 -67 6 -46 12 -54 63 -95 63 -51 203 -123 238 -123 30 0 29 -21
-3 -51 -24 -23 -31 -24 -140 -21 -78 2 -122 -2 -137 -10 -12 -7 -53 -15 -92
-18 -78 -6 -69 3 -125 -122 -17 -36 -38 -59 -98 -102 -69 -50 -77 -54 -84 -37
-12 33 -60 35 -117 7 -29 -15 -67 -26 -91 -26 -36 0 -40 3 -40 24 0 15 -12 34
-31 50 -28 24 -38 26 -122 26 -83 0 -96 3 -131 27 l-39 26 -46 -18 c-117 -46
-154 -56 -183 -49 -26 5 -36 0 -77 -38 -61 -59 -113 -88 -135 -76 -21 12 -70
-11 -74 -36 -2 -11 4 -23 13 -29 13 -7 15 -17 10 -43 -6 -32 -4 -36 27 -48
l33 -14 -27 -11 c-42 -16 -32 -52 23 -81 10 -6 23 -19 29 -30 19 -36 -15 -23
-77 30 -32 27 -61 50 -65 50 -4 0 -19 -10 -33 -22 -24 -21 -25 -26 -14 -55 7
-22 23 -39 45 -49 46 -22 43 -36 -8 -32 l-43 3 -9 62 -9 63 -82 26 -81 27 4
63 c4 56 2 64 -13 64 -41 0 -82 -39 -105 -100 -31 -84 -23 -120 45 -191 29
-30 69 -87 89 -125 20 -38 63 -100 96 -138 33 -38 60 -73 60 -78 0 -5 -13 -2
-30 7 -16 8 -51 18 -76 22 -39 5 -49 3 -60 -12 -21 -28 -17 -59 11 -85 29 -27
21 -51 -25 -75 -53 -27 -30 -77 42 -90 20 -4 39 -13 42 -20 2 -7 22 -18 43
-25 21 -7 47 -20 58 -30 11 -9 34 -22 50 -29 17 -6 42 -30 59 -56 27 -44 29
-45 80 -45 47 0 54 -3 64 -25 7 -14 12 -46 12 -70 0 -47 26 -125 41 -125 5 0
9 -11 9 -25 0 -14 -3 -25 -6 -25 -3 0 -32 23 -65 52 -66 58 -116 78 -201 78
-68 0 -105 -25 -93 -63 4 -12 10 -46 14 -74 8 -59 36 -97 89 -119 36 -16 41
-29 14 -36 -40 -11 -80 3 -92 32 -11 26 -31 39 -88 55 -14 4 -34 -1 -57 -15
-28 -17 -35 -28 -35 -52 0 -25 13 -44 68 -97 37 -37 73 -80 79 -96 16 -43 27
-105 24 -140 -1 -23 6 -38 28 -60 32 -30 40 -55 19 -55 -7 0 -32 9 -55 19 -34
16 -43 26 -48 54 -4 19 -6 43 -5 53 4 37 0 43 -37 53 -21 6 -44 11 -51 11 -17
0 -82 -136 -83 -175 0 -26 -2 -27 -9 -10 -5 11 -6 46 -3 77 5 57 5 58 -34 97
-27 27 -39 48 -38 67 0 21 -8 32 -32 46 -31 19 -32 19 -73 -2 -51 -26 -56 -39
-35 -94 9 -24 14 -49 10 -55 -11 -19 -33 -12 -40 12 -4 12 -18 46 -33 75 -23
47 -25 58 -16 100 5 26 7 74 4 106 -6 66 -28 92 -90 105 -39 8 -50 27 -21 36
12 3 21 13 21 22 0 21 -40 52 -69 53 -23 0 -23 0 9 36 17 20 36 47 41 61 7 19
14 23 27 18 38 -17 61 -16 98 3 59 30 96 35 140 18 21 -8 77 -20 124 -26 47
-7 102 -21 124 -31 34 -18 40 -18 55 -5 9 8 34 16 56 18 35 3 40 7 49 36 7 26
6 36 -5 43 -20 13 -77 28 -129 36 -25 3 -54 14 -65 24 -32 29 -64 36 -119 27
-28 -4 -76 -5 -107 -2 -44 5 -72 1 -125 -16 -57 -19 -73 -21 -99 -11 -26 9
-39 8 -68 -4 -51 -21 -55 -20 -62 23 -15 90 -17 94 -45 105 -16 6 -33 22 -40
35 -7 16 -17 23 -28 20 -14 -4 -17 3 -17 43 0 43 -5 53 -40 89 -22 23 -63 59
-92 81 -28 22 -56 53 -61 68 -5 15 -26 43 -46 62 -33 30 -37 39 -35 80 2 41
-3 54 -44 112 -50 70 -80 97 -108 97 -24 0 -59 61 -59 101 0 19 -3 60 -6 92
-4 43 -1 71 11 104 9 24 15 55 12 69 -3 16 1 28 12 34 14 8 14 13 -7 53 -20
38 -22 49 -12 67 7 12 9 36 6 53 -3 16 -2 35 3 41 5 6 11 31 12 55 4 45 3 45
-52 78 -38 22 -68 50 -94 88 -52 74 -217 201 -369 282 -72 38 -135 80 -156
102 -19 21 -55 52 -80 68 -42 28 -54 31 -169 37 -68 4 -131 11 -140 16 -9 5
-11 10 -5 10 15 0 25 26 18 45 -3 8 -27 27 -52 43 -64 39 -101 79 -124 130
-11 25 -37 55 -62 75 -24 17 -56 52 -71 77 -16 25 -44 61 -63 82 -19 20 -32
40 -29 45 3 5 0 21 -7 35 l-14 26 49 -31 c40 -25 51 -28 64 -17 21 17 19 66
-4 89 -11 11 -35 28 -53 37 -49 25 -141 99 -169 136 -35 47 -50 86 -55 143 -6
70 -30 99 -84 103 -74 6 -90 -3 -90 -46 -1 -20 -7 -48 -15 -62 -8 -14 -14 -46
-15 -72 0 -56 -18 -63 -61 -24 -32 28 -61 154 -52 228 5 43 9 48 39 58 24 8
34 19 39 41 13 57 -43 90 -128 77 -28 -5 -81 -12 -117 -16 -109 -13 -227 -90
-248 -161 -10 -31 -9 -45 3 -74 21 -51 19 -80 -9 -105 -55 -47 -67 -184 -24
-267 29 -56 119 -147 188 -189 55 -34 120 -95 120 -113 0 -7 19 -17 43 -24 51
-13 57 -21 57 -79 0 -25 9 -61 19 -81 11 -20 34 -92 52 -160 54 -208 82 -260
194 -348 41 -32 85 -71 99 -88 14 -17 49 -41 78 -54 46 -20 71 -24 198 -26
218 -5 220 -6 140 -95 -46 -52 -63 -88 -41 -88 5 0 38 -26 73 -58 68 -62 171
-113 277 -138 45 -11 63 -22 116 -77 68 -70 157 -121 233 -133 35 -5 42 -10
42 -29 0 -15 15 -36 40 -57 21 -19 57 -55 80 -80 l41 -47 -11 -68 c-19 -126
-18 -123 -55 -123 -54 0 -64 9 -96 79 -47 102 -92 141 -168 141 -68 0 -116 25
-134 70 -19 48 -76 82 -101 60 -30 -24 -74 -116 -116 -239 l-41 -124 36 -38
c25 -25 54 -42 89 -51 41 -12 57 -23 80 -56 29 -41 30 -42 13 -77 -16 -34 -16
-36 3 -55 11 -11 25 -20 30 -20 6 0 10 -16 10 -35 l0 -35 -61 7 -60 6 -59 -58
c-55 -54 -59 -63 -65 -114 -8 -73 -19 -93 -61 -116 -37 -20 -64 -60 -64 -93 0
-33 -21 -82 -40 -92 -12 -6 -35 -4 -74 8 -67 20 -67 18 -26 161 17 57 30 119
30 139 0 33 1 34 31 28 19 -3 42 0 60 9 25 13 29 22 29 55 0 31 -6 43 -30 62
l-30 24 10 83 11 83 -34 42 c-28 34 -90 161 -120 248 -3 10 -19 20 -34 24 -15
4 -49 19 -74 35 -25 16 -59 29 -75 29 -16 0 -39 7 -51 15 -19 13 -20 19 -11
49 13 43 4 96 -24 131 -21 26 -24 27 -90 21 -59 -6 -67 -5 -62 9 15 39 -44
105 -94 105 -15 0 -18 5 -15 23 4 21 -25 61 -118 162 -5 5 -57 10 -115 11
l-106 1 -36 39 c-21 22 -56 48 -79 58 -36 16 -45 27 -64 75 -31 77 -47 100
-75 107 -13 3 -36 25 -51 49 -15 24 -42 50 -60 59 -19 9 -33 23 -33 33 0 25
-29 75 -67 117 -25 27 -45 37 -90 46 -62 13 -73 22 -73 58 0 27 -34 96 -58
120 -10 9 -39 36 -65 59 l-46 42 16 46 c14 43 14 50 -2 93 -10 26 -28 59 -42
73 -30 33 -43 79 -43 155 0 107 -4 116 -73 152 -59 30 -286 176 -297 190 -3 4
-16 17 -30 29 -23 20 -29 21 -79 9 -49 -11 -58 -18 -120 -91 -37 -44 -86 -93
-110 -110 -37 -26 -52 -30 -106 -30 -66 0 -72 -3 -176 -84 -15 -11 -62 -36
-105 -54 -78 -33 -85 -41 -69 -79 10 -24 -61 -58 -122 -58 -26 0 -54 -4 -62
-9 -15 -10 -88 21 -179 75 -53 32 -57 38 -57 71 l0 37 -85 13 c-47 7 -108 10
-136 7 -49 -5 -53 -4 -74 25 -12 17 -30 31 -41 31 -14 0 -19 7 -19 30 0 27 -6
33 -54 57 l-54 26 -53 -19 c-44 -16 -58 -27 -77 -62 -23 -42 -24 -42 -81 -42
-51 0 -60 -3 -89 -33 -35 -36 -82 -135 -82 -172 0 -13 7 -40 17 -59 15 -33 15
-37 -5 -85 -27 -62 -27 -73 0 -120 22 -38 22 -39 4 -97 -26 -84 -30 -89 -62
-87 -169 12 -211 -3 -288 -104 l-50 -65 -65 7 c-158 18 -327 -3 -408 -50 -49
-29 -59 -43 -44 -58 13 -13 14 -47 1 -67 -6 -10 -27 -15 -67 -15 -56 0 -58 -1
-87 -42 -21 -28 -43 -46 -67 -53 -74 -21 -180 -118 -259 -236 -41 -64 -48 -80
-54 -144 -3 -40 -3 -102 0 -139 6 -61 10 -69 50 -108 40 -39 43 -45 32 -64 -7
-11 -52 -41 -100 -65 -65 -32 -96 -55 -125 -91 -21 -27 -61 -71 -90 -99 -60
-59 -86 -113 -77 -160 5 -27 2 -34 -16 -44 -29 -15 -86 -7 -144 22 l-44 21
-41 -35 c-31 -26 -54 -37 -91 -41 -80 -10 -191 -99 -205 -164 -6 -29 -37 -63
-57 -63 -4 0 -28 18 -53 40 -56 48 -89 59 -114 36 -17 -16 -25 -16 -112 -1
-52 9 -119 21 -149 25 -30 5 -91 27 -135 50 -135 68 -220 76 -294 25 -67 -44
-105 -51 -176 -30 -101 29 -180 -3 -206 -83 -14 -44 -24 -58 -33 -43 -4 6 -25
11 -47 11 -51 0 -75 13 -83 45 -4 17 -18 31 -40 40 -36 15 -56 41 -74 93 -9
27 -8 39 6 68 17 36 17 36 -11 58 -30 24 -35 61 -12 92 25 33 17 54 -45 121
-49 52 -60 70 -60 98 0 44 -29 65 -90 65 -26 0 -55 7 -66 15 -27 21 -93 18
-132 -5 -54 -33 -87 -27 -161 33 -107 86 -239 125 -315 92 -11 -5 6 22 38 59
60 71 76 101 76 142 0 14 7 32 15 40 10 10 15 35 15 74 0 50 3 60 20 65 31 10
69 75 80 136 6 30 13 66 16 81 l6 28 -67 0 -67 0 6 38 c20 109 22 98 -23 124
-35 19 -41 27 -36 47 14 54 40 95 70 104 47 15 55 26 55 73 0 42 1 44 29 44
21 0 45 14 85 51 31 28 56 58 56 67 0 9 20 37 44 62 32 32 55 71 81 135 20 50
52 106 69 125 73 78 103 128 110 182 4 29 20 111 37 181 16 71 29 154 29 186
0 38 8 78 24 118 14 33 30 89 37 125 10 53 17 68 40 84 38 25 36 47 -6 67 -34
16 -45 39 -25 52 5 3 10 37 10 74 0 64 1 68 38 104 53 52 93 57 169 22 40 -19
72 -27 103 -26 59 3 71 13 59 54 -5 18 -9 35 -9 38 0 12 128 39 183 39 57 0
75 -13 140 -102 21 -29 41 -41 94 -58 38 -13 116 -45 175 -72 111 -51 126 -53
174 -22 19 12 22 11 27 -6 3 -13 32 -32 80 -54 41 -19 113 -59 158 -89 75 -50
94 -58 173 -72 49 -8 124 -15 167 -15 l78 0 62 -50 c60 -48 64 -50 126 -50 73
0 108 -15 169 -70 51 -47 101 -64 184 -63 92 0 141 17 194 66 37 35 56 67 110
194 36 83 66 163 66 178 0 15 9 39 19 54 34 47 70 141 97 248 14 57 32 123 40
145 8 22 14 67 14 100 0 53 3 63 30 90 17 16 30 36 30 44 0 28 -52 116 -71
121 -14 4 -18 11 -14 22 21 55 18 67 -25 86 -42 19 -60 40 -60 72 0 10 -19 55
-42 100 l-43 82 17 63 c16 64 11 92 -16 82 -13 -5 -56 55 -56 78 0 6 14 26 30
45 25 28 29 38 19 49 -6 8 -20 14 -29 14 -29 0 -50 11 -50 26 0 34 -73 45 -90
13 -14 -26 -21 -19 -40 39 -14 43 -21 50 -81 82 -36 19 -83 50 -105 68 -32 27
-46 32 -78 30 -38 -3 -39 -2 -59 50 l-20 52 24 23 c14 12 30 36 38 53 11 28
10 37 -9 74 -20 39 -20 43 -5 60 14 16 39 19 178 24 89 3 182 8 207 11 59 7
90 -10 107 -60 20 -59 43 -77 105 -82 29 -2 63 -9 75 -15 12 -6 40 -8 61 -4
34 5 42 3 55 -17 19 -30 83 -50 110 -36 16 9 18 18 13 48 -4 26 2 58 19 106
34 97 33 141 -6 193 l-31 42 30 27 c26 22 29 30 21 52 -10 24 -9 24 9 8 10 -9
39 -20 64 -23 l46 -6 7 -69 c8 -74 19 -89 70 -89 14 0 42 -11 63 -24 20 -14
66 -32 102 -40 36 -9 75 -18 87 -22 19 -5 27 4 62 75 23 44 52 88 65 96 17 11
67 19 158 26 142 11 188 25 246 73 61 52 82 102 89 212 3 55 9 106 14 115 6
12 30 18 96 22 246 18 245 18 298 54 58 38 91 41 245 19 81 -12 97 -12 109 0
13 12 12 17 -8 38 -12 13 -44 29 -69 36 -26 6 -64 23 -85 37 -31 22 -35 28
-23 35 10 6 38 0 82 -18 l66 -26 21 20 c16 17 18 24 8 36 -10 12 -8 15 16 18
25 3 28 8 31 42 3 31 14 49 59 95 58 59 133 181 133 218 0 12 10 34 23 50 13
15 29 54 36 85 12 54 31 88 31 54 0 -8 13 -26 30 -39 24 -21 30 -34 30 -66 0
-26 5 -43 16 -49 13 -7 11 -13 -15 -40 -27 -26 -31 -38 -31 -82 0 -64 16 -72
77 -39 72 39 105 80 111 137 4 46 2 52 -32 89 -41 46 -46 83 -16 113 71 71
288 115 401 81 26 -8 57 -11 73 -7 26 6 27 10 22 40 -8 42 -4 44 120 52 l95 7
33 -32 c60 -59 126 -59 126 0 0 37 36 53 96 44 59 -9 69 7 51 82 -8 32 -17 79
-21 105 -5 45 -4 48 34 78 23 19 40 40 40 52 0 22 -49 109 -83 145 -18 20 -19
27 -9 62 15 48 16 190 1 228 -16 42 -58 82 -96 89 -43 8 -44 34 -3 81 34 38
38 74 15 130 -13 30 -14 47 -5 92 15 77 40 151 50 151 5 0 22 -11 38 -25 42
-36 87 -33 137 7 26 22 47 32 66 30 21 -3 34 6 64 42 50 61 136 89 175 58 19
-16 23 -30 25 -88 2 -74 24 -138 50 -148 9 -3 31 -6 49 -6 45 0 66 -19 59 -52
-6 -34 -46 -50 -121 -52 -56 -1 -57 -2 -76 -40 -18 -37 -18 -40 -1 -72 10 -18
15 -40 12 -48 -3 -8 -33 -30 -67 -50 -34 -20 -73 -50 -87 -66 -13 -17 -31 -30
-38 -30 -28 0 -39 -29 -29 -80 11 -52 6 -60 -36 -60 -11 0 -24 -9 -30 -20 -12
-22 -10 -24 81 -102 33 -29 54 -35 64 -18 15 25 27 8 21 -30 -4 -28 0 -55 14
-92 11 -29 20 -61 20 -70 0 -25 145 -118 183 -118 22 0 40 11 67 40 42 46 60
50 60 15 0 -19 -7 -26 -32 -33 -29 -7 -33 -12 -36 -48 -2 -27 -10 -45 -28 -60
-32 -27 -26 -57 16 -74 16 -7 35 -18 41 -26 6 -8 22 -14 34 -14 26 0 85 45 85
65 0 9 31 15 107 21 103 9 108 10 120 35 9 19 32 34 78 53 36 14 70 26 76 26
6 0 30 -14 55 -31 41 -28 44 -33 38 -64 -8 -43 3 -49 96 -55 69 -5 75 -7 81
-30 3 -14 0 -37 -9 -54 -21 -42 -5 -67 58 -89 58 -21 74 -13 63 31 -13 53 -11
57 40 60 31 2 65 13 95 32 47 28 127 50 183 50 17 0 63 15 102 33 55 25 80 45
107 80 32 42 111 97 140 97 6 0 42 13 78 29 37 15 115 39 173 51 96 21 111 22
154 10 40 -11 44 -15 28 -21 -12 -4 -24 -13 -28 -19 -12 -19 24 -106 58 -137
27 -26 43 -32 102 -38 39 -3 79 -9 90 -11 13 -3 44 10 84 36 35 23 88 50 118
61 30 12 61 31 70 45 14 23 14 26 -2 43 -9 11 -34 32 -56 47 -48 33 -54 71
-11 76 47 5 154 -11 171 -26 23 -21 155 -21 172 0 8 10 10 40 6 102 -6 78 -11
97 -54 182 l-48 95 0 110 c0 91 -3 116 -20 145 -16 29 -20 54 -20 140 l0 105
43 71 c36 60 44 83 52 152 9 85 40 162 65 162 18 0 112 43 141 65 20 14 25 12
100 -57 71 -65 79 -76 80 -109 0 -40 34 -94 88 -141 42 -37 85 -36 152 2 44
26 58 41 83 92 38 75 38 91 4 142 l-28 39 -1 201 c-1 226 -1 227 -70 187 -35
-21 -99 -28 -120 -13 -5 4 -16 32 -22 62 -7 30 -20 62 -29 72 -15 17 -15 20 7
43 20 22 21 27 10 54 -7 17 -21 33 -31 36 -16 5 -19 16 -19 61 0 30 7 68 15
84 28 55 274 200 338 200 49 0 100 24 132 62 l28 33 116 2 c87 1 120 -2 131
-13 31 -27 102 -44 183 -44 70 0 84 3 114 26 40 30 40 37 8 80 -14 19 -25 46
-25 64 0 27 3 30 20 25 15 -5 25 2 41 29 22 37 37 43 69 26 16 -9 25 -2 60 45
24 33 51 57 66 61 15 4 66 4 114 1 108 -8 122 1 92 60 -28 53 -63 83 -112 94
-36 8 -48 6 -77 -11 -44 -26 -81 -25 -110 2 l-23 22 -28 -27 c-26 -25 -29 -26
-51 -11 l-22 16 21 23 c17 18 21 33 18 71 -3 49 -3 49 -37 47 -23 -1 -60 -19
-115 -57 -44 -31 -97 -59 -116 -62 -19 -4 -55 -17 -80 -29 -25 -13 -90 -35
-145 -50 -55 -15 -104 -30 -110 -34 -5 -4 -32 -16 -60 -26 -110 -40 -159 -71
-200 -128 -51 -71 -102 -102 -139 -86 -22 10 -36 7 -105 -25 -66 -30 -92 -36
-146 -36 -44 0 -74 5 -90 16 -23 15 -27 15 -51 -1 -25 -16 -25 -16 -14 5 6 11
8 30 5 41 -6 19 -12 20 -111 13 l-104 -7 -18 42 c-16 35 -18 59 -14 159 4 102
2 124 -17 170 -17 42 -21 74 -21 156 0 58 -6 123 -14 152 -8 27 -17 69 -21 94
-4 25 -16 66 -26 92 -11 29 -16 59 -12 81 4 28 -1 47 -26 90 -17 30 -37 72
-45 95 l-14 40 50 62 c33 41 53 78 61 111 9 36 17 49 32 51 11 2 26 15 33 31
9 18 21 27 37 27 30 0 85 70 85 107 0 29 35 106 58 126 9 8 28 17 42 19 16 2
41 25 75 69 44 56 59 90 103 220 29 85 52 166 52 181 0 14 3 33 6 42 9 25 57
19 84 -9 24 -25 64 -33 75 -15 3 5 13 35 21 65 15 60 10 82 -24 107 -30 22
-62 69 -72 108 -15 57 -45 89 -91 96 -31 5 -39 11 -39 28 0 12 -5 27 -12 34
-20 20 -89 14 -143 -13 -33 -16 -68 -24 -101 -25 -95 0 -114 -9 -185 -82 -37
-37 -71 -68 -77 -68 -6 0 -18 -20 -28 -45 -14 -37 -15 -53 -6 -80 9 -32 8 -37
-17 -58 -34 -27 -85 -150 -76 -184 3 -13 21 -44 40 -69 19 -25 35 -53 35 -62
0 -9 -27 -42 -60 -73 -46 -43 -62 -66 -67 -93 -8 -52 -84 -180 -108 -184 -55
-8 -66 -14 -85 -52 -11 -21 -20 -48 -20 -59 0 -11 -9 -22 -19 -26 -11 -3 -55
-33 -97 -65 -58 -45 -86 -60 -110 -60 -38 0 -44 -12 -44 -85 0 -65 -20 -114
-99 -240 -34 -53 -66 -116 -71 -140 -11 -47 0 -166 21 -223 16 -47 1 -75 -50
-90 -46 -14 -47 -17 -26 -86 17 -56 19 -132 5 -228 -5 -37 -7 -74 -4 -82 3 -8
24 -24 45 -34 33 -16 47 -18 76 -10 19 5 36 8 38 6 1 -2 17 -27 35 -56 31 -50
35 -53 64 -48 72 15 70 16 87 -54 9 -36 33 -92 53 -125 48 -79 51 -95 27 -141
-12 -21 -21 -57 -21 -80 0 -34 -10 -55 -64 -130 -83 -116 -106 -137 -153 -138
-38 -1 -156 -61 -218 -110 l-29 -23 18 -47 c18 -46 15 -99 -5 -112 -5 -3 -19
-24 -30 -46 -20 -39 -21 -51 -14 -202 7 -151 6 -163 -13 -196 -11 -19 -32 -96
-46 -171 -24 -124 -63 -235 -129 -369 -17 -34 -50 -36 -91 -5 -20 15 -59 30
-96 37 l-62 12 -50 -52 c-31 -32 -58 -52 -72 -52 -38 0 -57 -33 -69 -119 -9
-62 -18 -89 -39 -115 -26 -33 -27 -33 -80 -24 -29 4 -81 8 -116 7 -53 -2 -66
1 -87 21 -17 16 -25 34 -25 57 0 28 3 33 24 33 75 0 76 42 2 114 -68 67 -86
102 -86 169 0 59 12 77 51 77 27 0 39 15 39 49 0 28 -99 233 -125 261 -13 14
-40 60 -60 104 -20 43 -51 97 -70 119 -19 22 -35 44 -35 49 0 4 -18 45 -40 89
-45 90 -48 120 -28 254 7 50 18 88 30 101 24 27 23 38 -12 89 -35 51 -37 71
-10 105 28 35 25 48 -12 58 -31 7 -35 13 -61 97 -36 117 -38 118 -80 129 -58
15 -67 0 -67 -108 0 -50 -4 -96 -8 -102 -4 -6 -25 -17 -47 -24 -22 -7 -71 -38
-110 -69 -38 -31 -101 -78 -140 -104 -38 -26 -115 -79 -169 -117 -128 -90
-189 -111 -301 -100 -100 9 -125 21 -148 71 -30 64 -116 190 -172 252 -83 91
-81 157 6 171 62 10 109 75 80 110 -19 22 -88 30 -114 13 -12 -7 -34 -16 -49
-19 -22 -4 -28 -1 -28 12 0 18 76 130 97 143 7 4 13 16 13 26 0 19 -40 61 -58
61 -20 0 -14 32 18 97 27 55 29 67 21 105 -6 23 -15 44 -20 46 -16 5 -13 36 5
75 15 32 15 36 -10 85 -36 71 -34 88 20 137 52 48 53 67 6 118 -24 25 -25 30
-13 50 8 12 17 49 22 82 4 33 18 89 31 124 20 56 28 66 58 76 18 6 35 16 36
21 1 5 5 26 8 46 5 25 13 39 29 45 26 10 156 99 241 166 l61 49 65 -7 65 -6
37 44 c29 35 46 47 77 52 55 9 148 66 201 124 56 61 119 84 218 79 l67 -3 -2
30 c-1 17 -4 42 -8 57 -8 29 8 43 60 52 43 8 58 27 46 60 -10 25 -9 28 32 45
38 16 47 27 70 81 26 59 27 64 11 87 -8 14 -14 26 -12 28 2 2 30 8 62 14 113
21 141 67 61 102 -24 11 -47 24 -50 29 -9 15 7 12 29 -5 11 -8 27 -15 36 -15
30 0 99 59 121 102 12 24 37 64 55 89 38 53 42 80 15 106 -10 10 -21 32 -24
48 -5 27 -2 33 31 50 l37 20 -1 71 0 70 43 32 c44 33 50 51 34 96 -7 18 -6 28
5 36 7 7 14 23 14 36 0 24 5 31 56 67 98 70 244 259 244 316 0 14 9 23 28 27
15 3 32 7 38 9 6 2 14 41 18 91 10 117 27 149 109 197 64 37 98 81 82 106 -14
23 -89 11 -160 -24 -64 -32 -75 -35 -127 -29 -55 6 -60 5 -100 -27 -61 -49
-128 -91 -128 -80 0 5 7 14 14 21 8 6 20 27 26 46 9 27 23 40 63 61 29 14 66
36 83 49 18 14 45 24 63 24 35 0 81 40 81 69 0 22 -19 41 -42 41 -10 0 -18 3
-18 6 0 4 26 41 58 82 37 49 69 80 92 90 19 8 55 27 79 44 61 41 62 28 0 -23
-50 -43 -51 -45 -46 -89 9 -77 22 -100 57 -100 25 0 35 8 60 47 17 26 30 52
30 59 0 6 6 17 14 23 11 9 12 3 8 -37 -3 -37 0 -53 15 -71 32 -39 65 -23 108
53 42 75 43 95 9 127 -14 13 -35 41 -45 62 l-20 38 32 52 c48 79 70 87 96 32
11 -23 28 -39 55 -50 70 -28 113 -13 106 37 -2 17 -14 25 -50 36 -27 7 -48 18
-48 23 0 23 23 51 60 74 34 22 40 30 40 61 0 19 -5 45 -11 57 -11 19 -7 25 26
54 34 29 45 33 97 33 l59 0 -21 -28 c-17 -22 -21 -40 -18 -83 3 -47 6 -54 26
-57 12 -2 38 6 57 18 l34 21 41 -21 c82 -42 97 8 24 78 -37 35 -45 48 -38 63
9 18 11 17 54 -11 54 -36 70 -37 98 -7 26 27 27 40 7 57 -23 19 -1 46 44 54
64 10 148 46 189 82 33 28 44 32 78 27 30 -4 43 -1 53 11 11 13 11 20 3 28
-18 18 -14 27 8 21 11 -3 31 -2 45 1 35 9 32 42 -7 83 -23 24 -29 36 -21 41 7
4 15 27 19 50 4 23 8 42 9 42 1 0 16 -5 34 -11 27 -10 31 -15 31 -48 0 -40 14
-61 42 -61 17 0 17 -2 -1 -48 -28 -71 -37 -198 -18 -245 11 -26 22 -37 37 -37
38 0 65 103 39 151 -9 17 -3 32 29 87 22 37 47 93 56 125 10 33 22 57 30 57
17 0 27 -25 20 -45 -4 -8 -3 -36 1 -61 5 -36 11 -47 32 -55 64 -24 92 22 68
114 -21 83 -13 123 30 137 18 6 45 8 59 4 l26 -6 -22 -40 -23 -40 33 -27 c25
-22 32 -35 32 -64 0 -27 7 -41 26 -56 35 -27 55 -26 83 3 21 22 22 28 11 61
-14 42 -6 85 16 85 8 0 27 -6 42 -14 15 -7 63 -17 107 -20 102 -9 153 -24 171
-50 22 -32 17 -44 -31 -65 -32 -14 -46 -27 -51 -46 -6 -24 -10 -26 -43 -21
-149 23 -195 17 -189 -27 2 -17 17 -27 66 -43 34 -12 74 -30 88 -40 62 -44 67
-45 150 -39 67 5 88 2 127 -14 l46 -20 23 28 c13 16 33 34 46 40 23 12 31 54
12 66 -26 16 -4 25 60 25 81 0 120 -18 120 -56 0 -30 -30 -47 -95 -54 -48 -5
-50 -6 -50 -35 0 -27 4 -30 35 -33 19 -2 52 2 73 8 32 9 43 9 62 -4 31 -20 55
-20 83 0 26 18 27 13 6 -27 -18 -35 -14 -53 26 -108 32 -43 59 -52 81 -25 10
12 10 22 2 45 -6 16 -9 38 -6 49 4 17 12 20 42 18 33 -3 36 0 39 25 4 31 10
32 102 12 85 -19 122 -18 164 1 31 15 39 16 93 2 149 -39 345 -102 420 -134
55 -23 104 -37 150 -40 80 -7 198 -40 303 -84 59 -24 87 -30 130 -28 50 2 64
-3 155 -51 55 -30 117 -67 138 -83 33 -26 37 -35 37 -74 0 -40 3 -47 33 -64
19 -11 46 -42 60 -69 23 -42 27 -61 27 -132 0 -73 -4 -93 -37 -172 -42 -100
-90 -161 -184 -231 -153 -115 -267 -134 -446 -75 -52 17 -76 19 -145 13 -46
-3 -101 -13 -123 -20 -22 -8 -62 -14 -88 -14 -41 0 -53 5 -84 35 -42 40 -56
42 -101 15 -42 -26 -56 -26 -42 -1 17 34 11 59 -22 90 -49 45 -70 41 -95 -20
-21 -49 -23 -50 -60 -47 -36 3 -40 7 -72 66 -24 47 -42 67 -65 77 -30 13 -106
12 -127 0 -30 -19 20 -106 81 -144 25 -15 59 -45 75 -65 17 -20 46 -56 66 -79
20 -23 34 -48 32 -55 -9 -25 19 -40 99 -52 92 -13 160 -43 230 -103 47 -39 55
-60 20 -50 -28 7 -72 -14 -72 -35 0 -10 16 -33 35 -52 19 -19 35 -40 35 -47 0
-7 -18 -24 -40 -38 -69 -44 -48 -90 52 -115 41 -11 45 -15 65 -68 37 -98 44
-130 37 -166 -6 -35 -5 -37 40 -57 65 -28 179 -51 207 -41 19 7 33 0 82 -39
61 -49 167 -95 243 -106 33 -4 49 -1 72 16 17 11 44 21 61 21 40 0 63 35 69
104 4 45 1 56 -23 84 -29 34 -71 49 -168 60 -54 6 -62 10 -77 37 -12 22 -26
31 -51 35 -24 4 -35 11 -37 25 -7 34 -21 43 -60 38 -26 -4 -42 0 -50 10 -15
18 -3 29 50 46 29 10 40 20 50 47 11 31 15 34 38 28 14 -3 53 -9 88 -13 34 -4
67 -12 72 -17 6 -6 19 -33 29 -60 23 -59 48 -68 80 -28 11 15 21 33 21 40 0
27 21 24 72 -11 29 -19 57 -35 62 -35 6 0 22 11 36 25 l27 26 25 -21 c38 -29
58 -25 106 24 37 38 42 49 42 88 0 82 -9 101 -91 188 -104 112 -106 122 -45
248 32 68 46 110 46 139 0 40 1 41 39 48 64 11 114 62 139 142 12 38 22 92 22
121 0 29 2 52 5 52 4 0 20 -7 38 -16 25 -13 48 -15 114 -10 l84 6 53 -40 c77
-58 141 -54 162 12 5 18 -1 29 -33 58 -39 34 -39 36 -27 70 19 51 17 84 -6
105 -13 12 -20 31 -20 56 0 59 -32 119 -90 168 -60 51 -84 99 -94 191 -4 36
-14 94 -22 129 -8 35 -12 77 -9 93 9 38 -2 49 -88 97 -40 21 -85 53 -101 70
l-30 31 38 0 c20 0 57 -5 81 -11 36 -9 53 -8 91 5 25 8 93 19 149 22 99 7 105
6 147 -19 55 -32 124 -102 137 -138 9 -27 8 -28 -39 -44 -47 -16 -87 -51 -126
-111 -13 -19 -15 -30 -6 -49 9 -18 8 -24 -4 -29 -10 -4 -14 -25 -14 -86 0 -77
1 -81 26 -90 14 -6 45 -10 70 -10 36 0 51 -6 81 -34 74 -65 93 -68 162 -26 43
27 52 29 75 19 22 -10 31 -8 66 15 22 14 40 30 40 35 0 6 9 13 21 16 18 6 20
12 15 48 -3 23 -9 83 -12 132 -3 50 -10 102 -15 117 -9 22 -6 33 16 66 15 22
37 43 51 46 20 5 24 12 24 46 0 29 -5 42 -20 50 -24 13 -18 30 10 30 11 0 27
11 36 25 13 20 14 31 5 56 -9 27 -7 36 17 72 16 23 46 89 67 147 37 99 60 134
110 170 34 25 65 84 65 126 0 32 5 42 31 59 17 11 42 42 56 70 14 27 35 62 46
77 19 26 22 27 28 11 4 -10 3 -23 -2 -29 -16 -19 1 -42 52 -74 44 -26 49 -34
49 -65 0 -30 -4 -37 -35 -49 -37 -16 -45 -40 -22 -68 25 -32 46 -29 90 12 40
36 48 39 107 42 77 4 81 11 55 99 -12 40 -15 71 -11 103 7 41 13 51 61 86 30
22 66 40 80 40 36 0 68 38 121 144 39 78 45 97 39 132 -10 69 -4 73 83 67 42
-3 83 -10 90 -16 9 -7 12 -31 10 -75 -4 -84 8 -93 86 -69 69 22 116 60 116 93
0 16 -17 43 -45 73 l-45 48 34 39 c89 105 72 156 -69 209 -167 63 -219 127
-151 185 23 18 20 38 -10 63 l-26 23 89 46 c48 25 140 67 203 92 l114 46 158
0 c147 0 162 2 206 24 65 32 141 39 258 21 55 -8 126 -15 160 -15 64 0 178 32
204 57 13 13 7 14 -55 8 -89 -9 -237 -10 -390 -1 -92 5 -129 3 -157 -8z
m-6496 -1843 c-20 -43 -26 -35 -17 22 6 42 8 45 20 29 11 -15 10 -24 -3 -51z
m187 -110 c1 -13 -3 -23 -9 -23 -5 0 -10 19 -9 43 0 32 2 37 9 22 5 -11 9 -30
9 -42z m-173 12 c-17 -41 -35 -73 -36 -63 0 11 39 98 45 98 3 0 -1 -16 -9 -35z
m-815 -419 c7 -7 -44 -56 -58 -56 -8 0 11 57 25 80 15 23 17 24 20 5 2 -11 8
-24 13 -29z m2581 -1003 c16 -18 48 -77 48 -88 0 -8 -83 46 -102 68 -10 10
-18 23 -18 28 0 16 57 9 72 -8z m-4632 -4688 c-18 -19 -20 -32 -18 -91 2 -64
0 -72 -31 -117 l-33 -49 -22 21 c-46 44 -168 16 -228 -52 -21 -23 -38 -36 -38
-29 0 24 -34 11 -81 -33 -26 -25 -52 -45 -56 -45 -5 0 -26 14 -46 31 -42 35
-43 44 -7 125 16 39 22 43 88 63 39 11 92 21 119 21 45 1 52 5 118 65 77 71
106 88 186 109 65 16 78 12 49 -19z m880 -1770 c0 -8 -7 -15 -15 -15 -9 0 -12
6 -9 15 4 8 10 15 15 15 5 0 9 -7 9 -15z m-2440 -245 c21 -40 12 -76 -30 -114
-22 -20 -42 -36 -45 -36 -3 0 -5 10 -5 23 0 17 11 30 41 46 47 27 50 58 7 79
-28 13 -34 23 -22 35 10 9 42 -10 54 -33z m9990 -1993 c0 -27 -12 -44 -72
-103 -40 -39 -88 -77 -106 -84 -18 -7 -48 -30 -66 -51 -22 -26 -44 -41 -67
-45 -55 -9 -109 -36 -109 -53 0 -9 21 -42 48 -74 46 -55 48 -57 98 -57 32 0
56 -5 63 -14 18 -21 -4 -102 -40 -148 -28 -34 -30 -41 -20 -70 16 -44 14 -56
-9 -63 -13 -4 -20 -15 -20 -33 0 -15 -3 -44 -6 -64 l-7 -38 -91 0 c-90 0 -93
-1 -121 -30 l-30 -31 -11 33 c-9 29 -15 33 -50 36 -53 3 -144 -48 -144 -82 0
-19 -5 -23 -37 -24 -30 -1 -44 -9 -69 -37 l-30 -37 -73 61 c-81 68 -211 203
-211 220 0 5 9 15 20 21 17 9 20 8 20 -13 0 -14 7 -30 15 -37 12 -10 22 -6 55
28 32 32 40 47 40 76 0 42 35 104 73 129 14 9 28 26 32 37 6 20 7 19 39 -5 18
-14 38 -25 43 -25 12 0 53 90 53 114 0 23 52 46 103 46 48 0 71 17 82 60 3 15
22 34 46 48 22 13 50 39 61 58 24 42 64 64 113 64 26 0 55 13 108 49 40 26 97
62 127 79 31 18 69 45 85 62 39 41 65 40 65 -3z m-843 -489 c-3 -8 -6 -5 -6 6
-1 11 2 17 5 13 3 -3 4 -12 1 -19z m-1216 -258 c11 0 19 -4 19 -10 0 -5 -8
-10 -18 -10 -30 0 -61 -29 -87 -80 -41 -81 -39 -85 68 -110 128 -29 227 -41
249 -29 11 6 23 21 28 35 10 25 21 27 85 15 24 -4 62 -2 93 5 51 11 53 11 50
-9 -2 -14 -22 -27 -70 -47 -73 -29 -106 -53 -119 -87 -4 -12 -28 -36 -51 -53
-69 -49 -83 -101 -48 -170 20 -39 22 -40 74 -40 39 0 57 5 70 19 17 19 19 18
95 -20 l77 -40 13 -120 13 -121 62 -29 c85 -40 118 -38 196 14 57 37 65 47 74
87 10 40 17 49 66 78 30 18 78 40 107 49 46 15 53 21 68 59 27 71 51 94 95 94
22 0 54 9 72 20 18 11 47 20 63 20 58 0 102 20 143 63 34 37 41 41 49 27 7
-11 38 -19 103 -27 83 -11 97 -15 126 -44 18 -17 35 -41 38 -53 13 -52 103
-61 163 -17 l40 29 17 -59 16 -59 71 0 c95 0 346 -81 469 -151 47 -26 114 -59
150 -73 36 -14 101 -41 145 -60 77 -34 135 -46 135 -27 0 5 17 12 39 16 45 7
90 -9 137 -48 18 -15 42 -27 55 -27 36 0 126 -46 139 -70 7 -13 23 -53 35 -91
19 -54 39 -87 99 -156 72 -84 76 -90 76 -137 0 -37 -12 -75 -51 -162 -43 -94
-59 -119 -95 -146 -23 -18 -71 -68 -106 -110 l-63 -78 -67 0 c-90 0 -383 -28
-433 -41 -55 -15 -83 -31 -148 -83 -66 -54 -103 -59 -159 -21 -23 16 -51 25
-74 25 -31 0 -45 -7 -81 -46 l-44 -45 -137 50 c-163 60 -216 74 -242 66 -22
-7 -27 -44 -9 -77 16 -30 4 -33 -30 -7 -28 20 -29 24 -16 39 23 26 18 59 -15
90 -42 39 -88 57 -109 42 -41 -31 -84 -42 -160 -42 -88 0 -95 5 -120 83 -16
49 -43 65 -110 69 l-55 3 -9 -38 c-13 -55 -35 -64 -177 -71 -146 -7 -155 -9
-320 -72 -152 -58 -262 -127 -456 -287 l-141 -116 -12 -68 c-20 -111 21 -106
-353 -37 -20 4 -34 -2 -60 -29 -30 -30 -42 -35 -101 -40 -48 -4 -76 -2 -101 8
-20 8 -54 15 -77 15 -33 0 -47 -6 -70 -31 l-29 -31 0 25 c0 23 -5 27 -47 33
-59 8 -143 49 -210 103 -44 34 -53 47 -62 92 -7 33 -23 65 -47 93 -19 22 -51
73 -70 112 -31 64 -38 72 -74 83 -22 6 -40 16 -40 20 0 5 27 20 60 35 73 33
87 54 64 98 -13 25 -15 50 -11 117 8 136 22 154 122 149 l50 -3 -2 209 c-1
115 -5 224 -7 242 -5 27 2 44 39 100 49 72 48 82 -5 104 -25 10 -30 18 -30 45
0 41 27 56 36 20 9 -37 27 -47 60 -34 16 6 64 19 107 29 43 10 81 20 83 23 3
2 9 31 14 64 9 54 7 68 -20 148 -35 105 -39 139 -12 131 42 -14 168 166 174
247 2 41 10 56 46 95 26 29 49 67 60 101 15 49 21 56 62 74 25 11 60 32 79 46
35 27 116 43 175 35 16 -2 37 -4 47 -4z m1522 -296 c-8 -13 -17 -24 -19 -24
-2 0 -4 19 -4 42 0 40 0 41 20 23 18 -16 18 -19 3 -41z m-2109 -2489 c46 -53
47 -68 6 -70 -8 -1 -39 -5 -68 -9 -45 -7 -55 -12 -68 -38 -15 -30 -15 -31 17
-64 l32 -33 -24 -5 c-13 -3 -72 -7 -132 -8 -95 -3 -107 -1 -107 14 0 9 -12 26
-27 38 -24 19 -36 21 -83 16 -63 -8 -74 -19 -54 -57 8 -16 14 -37 14 -48 0
-27 -37 -16 -44 14 -4 16 -18 27 -42 35 -45 15 -99 1 -164 -42 -73 -49 -18 6
64 63 76 54 105 90 128 159 l15 45 64 5 c35 3 74 11 86 18 14 8 65 12 140 12
116 0 119 1 153 29 l35 29 7 -25 c4 -13 27 -48 52 -78z m-924 -330 c0 -2 -9
-9 -20 -15 -12 -6 -20 -7 -20 -1 0 5 8 12 18 14 9 3 18 5 20 6 1 0 2 -1 2 -4z
m-727 -122 c43 -33 46 -43 12 -43 -18 0 -26 7 -31 25 -4 17 -16 28 -38 34 -29
9 -29 9 -5 10 14 1 42 -11 62 -26z m-242 -80 c13 -15 12 -15 -8 -4 -24 12 -29
21 -14 21 5 0 15 -7 22 -17z m-1039 -715 c-7 -7 -12 -8 -12 -2 0 14 12 26 19
19 2 -3 -1 -11 -7 -17z m733 -144 c30 -20 96 -39 155 -44 3 -1 -10 -7 -28 -15
-24 -10 -39 -12 -52 -5 -10 5 -65 17 -122 26 -57 9 -116 23 -131 31 -32 16
-79 10 -149 -19 -28 -12 -55 -17 -65 -13 -17 7 -16 8 2 15 73 28 139 39 223
38 51 -1 95 2 99 5 12 12 30 7 68 -19z"/>
<path d="M19600 18827 c0 -22 11 -49 29 -74 46 -63 73 -123 67 -147 -3 -13
-29 -33 -73 -56 -55 -28 -69 -40 -71 -61 -4 -36 38 -69 89 -69 51 0 133 33
194 79 28 21 65 45 82 55 60 31 72 92 24 127 -22 16 -31 32 -36 68 -15 108
-16 111 -42 111 -18 0 -23 -4 -19 -17 2 -10 8 -43 12 -73 9 -71 20 -101 46
-121 24 -18 19 -46 -9 -56 -10 -3 -41 -23 -68 -43 -99 -73 -176 -101 -210 -76
-18 13 -16 16 40 43 110 53 119 98 40 219 -25 38 -45 81 -45 97 0 22 -4 27
-25 27 -22 0 -25 -4 -25 -33z"/>
<path d="M15815 17503 c-22 -3 -46 -10 -54 -16 -24 -20 -51 -90 -51 -132 0
-33 6 -45 35 -70 31 -27 35 -38 49 -119 21 -125 27 -130 164 -134 139 -4 158
5 154 70 -2 38 3 54 28 90 54 77 64 205 20 261 -37 47 -176 67 -345 50z m265
-57 c24 -8 40 -23 52 -47 23 -47 7 -126 -39 -193 -29 -43 -33 -55 -28 -88 l7
-38 -100 0 c-72 0 -103 4 -111 14 -6 7 -16 51 -23 97 -11 78 -14 86 -50 119
-34 32 -37 38 -29 65 16 54 24 67 45 75 32 13 236 10 276 -4z"/>
<path d="M3465 17162 c-46 -25 -50 -30 -53 -67 -2 -22 -7 -43 -11 -48 -4 -4
-25 6 -47 24 -45 36 -75 34 -136 -6 -38 -26 -45 -44 -32 -92 7 -25 91 -77 232
-143 72 -34 100 -53 122 -84 l30 -40 -23 -24 c-12 -13 -29 -28 -38 -33 -25
-13 -75 6 -140 51 -64 45 -214 120 -240 120 -15 0 -119 -115 -119 -132 0 -18
117 -106 173 -130 l62 -26 7 -54 c6 -47 3 -59 -23 -104 -44 -77 -49 -79 -108
-50 -28 14 -56 26 -63 26 -25 -1 -81 -89 -89 -142 -5 -28 -6 -55 -3 -59 2 -4
30 -11 62 -14 81 -10 184 -79 219 -150 14 -27 41 -73 59 -102 18 -28 49 -91
70 -140 21 -48 42 -94 47 -100 5 -8 32 -13 63 -13 53 0 53 0 95 -56 l41 -56
61 7 c33 3 82 17 108 31 l48 24 70 -30 69 -30 84 26 c46 14 120 36 165 50 l83
25 40 -42 c39 -42 40 -42 95 -35 64 7 252 68 308 99 43 24 158 194 176 262 26
95 11 160 -57 253 -27 37 -52 72 -56 79 -9 17 37 39 98 47 160 21 73 156 -100
156 l-26 0 7 73 c9 96 2 104 -96 102 -76 -1 -76 -1 -97 -57 -13 -32 -38 -29
-73 8 -33 35 -78 32 -115 -7 -32 -34 -74 -59 -99 -59 -11 0 -15 11 -15 48 0
38 -7 56 -35 95 -20 26 -41 47 -48 47 -6 0 -25 -18 -40 -41 -40 -55 -68 -72
-100 -60 -23 9 -25 14 -20 48 3 21 17 50 30 64 21 22 23 32 17 65 -10 60 -20
71 -65 77 -31 4 -53 0 -79 -13 -31 -16 -39 -27 -55 -79 -10 -33 -28 -70 -41
-82 -21 -20 -25 -20 -66 -6 -38 13 -43 17 -41 43 1 16 16 48 33 72 34 48 37
79 14 124 -12 23 -16 55 -15 118 2 81 0 88 -29 128 -40 56 -70 57 -106 2 -15
-22 -30 -40 -34 -40 -4 0 -20 18 -35 40 -33 48 -51 50 -120 12z m104 -62 c49
-52 73 -52 108 1 l27 41 18 -22 c14 -18 18 -40 18 -111 0 -72 4 -94 21 -124
l22 -36 -22 -27 c-33 -41 -54 -93 -55 -137 l-1 -40 71 -24 71 -25 41 33 c33
26 44 44 58 92 18 64 40 85 79 75 33 -8 40 -40 16 -73 -10 -15 -25 -52 -31
-81 -12 -50 -11 -56 8 -74 13 -14 38 -23 71 -26 50 -4 53 -4 91 38 39 42 41
43 55 24 8 -10 15 -41 15 -68 0 -57 20 -86 58 -86 36 0 110 38 129 66 20 31
33 30 86 -6 25 -16 54 -30 65 -30 22 0 62 43 62 66 0 9 11 14 28 14 15 0 37 3
50 6 22 6 23 5 20 -69 -2 -42 2 -80 7 -86 6 -6 41 -15 78 -20 67 -10 122 -34
113 -50 -3 -4 -28 -11 -55 -14 -65 -8 -109 -31 -122 -64 -9 -23 -5 -34 22 -73
98 -136 99 -138 99 -204 0 -71 -15 -106 -92 -221 l-53 -80 -85 -32 c-111 -42
-221 -68 -252 -60 -16 4 -32 20 -42 42 -9 19 -24 35 -33 35 -26 0 -133 -29
-241 -66 l-104 -36 -76 31 -76 31 -54 -26 c-30 -15 -73 -29 -96 -31 -41 -5
-43 -4 -84 51 -42 56 -43 56 -96 56 l-53 0 -29 72 c-16 40 -51 109 -78 153
-26 44 -55 97 -63 117 -22 56 -150 144 -221 154 -50 6 -51 8 -45 33 6 29 16
47 37 74 13 17 16 17 68 -9 53 -26 56 -26 81 -9 15 9 43 44 62 76 34 55 36 62
33 136 l-3 78 -84 42 c-46 23 -97 54 -113 70 l-29 29 33 38 34 38 84 -42 c47
-23 106 -58 133 -77 26 -19 72 -41 103 -49 l55 -15 54 47 c30 25 55 54 55 63
0 9 -17 40 -37 69 -35 48 -50 58 -193 130 -165 82 -183 99 -139 133 34 26 46
24 105 -22 63 -49 88 -48 92 1 6 84 12 100 45 114 18 8 33 15 35 15 1 1 20
-17 41 -39z"/>
<path d="M5230 13760 c-49 -21 -74 -40 -102 -77 -21 -26 -38 -53 -38 -60 0 -7
26 -32 58 -55 45 -34 65 -43 98 -43 36 0 50 8 110 60 38 33 72 64 76 70 12 16
9 110 -4 123 -22 22 -127 13 -198 -18z m160 -52 c0 -28 -9 -41 -61 -83 -33
-27 -69 -51 -80 -53 -21 -4 -99 44 -99 59 0 5 12 22 28 39 33 36 113 69 170
69 41 1 42 0 42 -31z"/>
<path d="M6251 12683 c-76 -26 -131 -69 -160 -126 -13 -24 -13 -33 -2 -60 8
-18 17 -68 21 -112 10 -104 20 -146 36 -152 16 -6 110 75 174 149 37 43 45 59
46 97 2 34 10 56 38 94 20 26 36 51 36 56 0 4 -15 24 -34 44 -40 44 -54 45
-155 10z m119 -38 c11 -13 8 -23 -18 -61 -25 -34 -32 -55 -32 -90 0 -44 -4
-50 -72 -120 -47 -49 -75 -71 -82 -64 -5 5 -12 48 -14 95 -3 47 -8 88 -13 91
-30 18 21 96 81 123 97 43 131 49 150 26z"/>
<path d="M4720 12006 c-120 -67 -152 -110 -148 -196 l3 -55 65 -3 c83 -4 162
13 188 41 33 35 75 157 64 182 -12 25 -61 85 -70 85 -4 -1 -50 -25 -102 -54z
m115 -29 c13 -21 13 -29 1 -63 -36 -101 -53 -114 -157 -114 -58 0 -59 0 -59
29 0 51 29 84 109 128 42 23 79 42 83 43 4 0 14 -11 23 -23z"/>
<path d="M5059 11903 c-52 -43 -108 -94 -126 -113 -64 -68 -131 -148 -135
-161 -3 -10 -14 -8 -49 9 -24 11 -68 24 -96 28 l-53 7 -17 -39 c-11 -25 -16
-60 -15 -98 2 -56 4 -61 55 -115 93 -98 87 -135 -33 -182 -102 -41 -115 -55
-115 -129 0 -39 -4 -61 -12 -65 -7 -2 -13 -11 -13 -19 0 -10 33 -25 99 -45 54
-17 103 -37 109 -44 8 -10 -8 -22 -71 -56 -101 -54 -147 -87 -147 -107 0 -8
14 -33 30 -56 17 -23 36 -61 42 -85 11 -46 39 -73 74 -73 13 0 61 14 107 30
97 34 107 36 107 15 0 -31 -26 -67 -72 -100 -26 -19 -62 -54 -79 -77 -42 -58
-38 -112 15 -191 73 -110 126 -126 254 -77 46 18 86 30 88 27 3 -3 -6 -27 -19
-54 -14 -26 -33 -73 -42 -104 -17 -54 -17 -59 -1 -100 10 -24 36 -70 57 -102
54 -79 57 -102 20 -158 -52 -77 -64 -84 -145 -83 -79 1 -132 15 -183 50 -40
27 -115 41 -152 28 -40 -15 -49 -62 -20 -118 12 -25 20 -48 18 -51 -3 -2 -19
-1 -36 4 -50 14 -66 -5 -71 -81 -4 -61 -2 -66 22 -86 16 -12 50 -24 81 -27 52
-7 55 -9 65 -44 15 -55 12 -127 -6 -145 -13 -13 -43 -16 -172 -16 -105 0 -165
-4 -181 -13 -13 -6 -38 -38 -54 -70 -28 -53 -29 -60 -18 -97 20 -66 47 -89
133 -110 106 -28 208 -75 208 -96 0 -10 10 -28 22 -41 l21 -23 -34 0 c-19 0
-67 -7 -108 -15 -59 -13 -83 -24 -125 -58 -29 -24 -71 -49 -94 -56 -22 -8 -71
-37 -109 -66 -37 -28 -95 -64 -128 -79 -71 -32 -115 -71 -115 -102 0 -15 20
-38 65 -74 55 -43 73 -52 118 -57 50 -5 57 -3 99 29 67 51 98 62 146 49 32 -9
46 -20 66 -56 15 -24 36 -51 48 -60 23 -15 76 -20 113 -9 25 7 87 86 109 137
11 29 20 37 33 34 10 -3 39 -8 65 -12 41 -5 47 -9 50 -33 2 -20 13 -32 41 -46
53 -25 242 -27 307 -2 25 9 46 13 48 9 1 -4 13 -26 25 -48 l23 -40 234 -3
c310 -4 338 3 417 97 79 95 81 101 49 156 l-27 46 35 48 c40 55 89 101 194
184 l72 58 0 67 c0 37 9 98 20 137 11 38 20 77 20 86 0 9 -32 40 -70 68 -87
63 -189 91 -262 73 -34 -9 -46 -8 -56 2 -11 10 -6 18 28 39 l40 27 0 76 c0 68
-4 82 -35 138 -38 69 -42 109 -26 251 8 67 7 73 -29 155 -20 47 -43 102 -50
124 -10 32 -20 41 -60 58 l-47 20 1 217 1 218 -40 44 c-24 26 -51 71 -64 108
-21 55 -31 67 -73 93 l-49 30 33 29 c33 28 33 28 16 58 l-17 31 53 0 52 0 109
138 c60 75 127 167 148 205 l40 67 -29 66 -29 66 -125 45 c-69 25 -143 51
-165 60 -47 17 -118 21 -159 9 l-29 -9 28 37 c19 25 57 52 114 81 47 24 109
66 138 92 50 46 52 50 58 115 l6 67 -67 31 c-59 27 -77 30 -163 30 -74 0 -113
6 -174 25 -43 14 -84 25 -91 25 -8 0 -56 -35 -107 -77z m197 4 c51 -18 94 -24
165 -25 72 -1 109 -7 143 -21 42 -19 46 -23 46 -56 0 -54 -55 -107 -169 -165
-90 -45 -100 -53 -153 -126 -32 -43 -58 -84 -58 -91 0 -19 38 -16 106 8 73 25
106 21 239 -30 55 -22 119 -45 141 -51 35 -11 45 -20 63 -59 l22 -46 -28 -50
c-15 -28 -75 -110 -133 -183 l-104 -132 -68 0 c-80 0 -91 -12 -62 -66 l19 -36
-37 -30 c-21 -16 -38 -35 -38 -41 0 -7 28 -28 62 -47 56 -32 64 -40 86 -95 13
-33 42 -82 64 -108 l40 -49 -3 -216 -4 -217 52 -24 c43 -20 55 -31 64 -60 7
-20 27 -69 46 -110 33 -73 33 -75 23 -155 -18 -144 -15 -171 30 -248 32 -55
40 -80 40 -119 0 -46 -2 -50 -42 -76 -65 -42 -66 -45 -16 -106 l23 -29 55 14
c48 12 63 12 115 0 60 -15 175 -84 175 -106 0 -6 -9 -40 -20 -76 -11 -36 -20
-92 -20 -125 l-1 -60 -56 -40 c-81 -58 -185 -162 -218 -218 l-28 -48 27 -49
26 -48 -38 -49 c-82 -102 -87 -103 -379 -103 l-233 0 -16 40 c-24 59 -41 65
-125 39 -60 -18 -86 -21 -161 -15 -107 7 -132 18 -124 52 8 31 -13 41 -117 52
-76 8 -79 8 -98 -16 -10 -14 -19 -30 -19 -36 0 -6 -16 -35 -37 -64 -35 -51
-38 -53 -77 -50 -34 3 -44 9 -63 38 -36 57 -49 68 -105 85 l-54 17 -54 -27
c-30 -15 -67 -36 -82 -46 -44 -31 -88 -25 -147 22 -28 22 -51 45 -51 50 0 5
35 27 78 48 43 21 103 57 132 80 30 23 83 56 118 72 35 16 81 44 102 63 41 37
77 46 265 67 55 6 103 13 107 15 29 18 -18 51 -99 69 -18 3 -33 10 -34 13 0 4
-2 17 -3 29 -2 13 -5 25 -7 27 -13 12 -172 75 -214 85 -88 21 -104 30 -116 71
-10 34 -9 43 12 82 l24 43 172 5 c164 5 173 6 197 29 34 32 41 77 26 168 -12
70 -15 76 -44 88 -17 7 -52 16 -78 19 l-48 7 0 50 c0 46 1 49 19 39 31 -16 69
-12 81 9 15 29 12 52 -10 94 -33 61 -28 71 30 64 28 -3 62 -15 77 -27 14 -11
48 -27 76 -35 57 -17 199 -20 227 -5 10 5 39 37 64 71 40 53 46 68 46 109 0
39 -8 59 -44 114 -69 104 -72 118 -51 184 9 32 28 77 41 102 27 50 30 80 12
98 -19 19 -50 14 -131 -18 -103 -41 -131 -40 -177 9 -20 21 -46 57 -57 80 -33
66 -19 90 104 196 66 57 81 139 31 166 -18 10 -40 6 -124 -21 -56 -18 -108
-31 -116 -28 -8 3 -20 26 -27 49 -7 24 -24 58 -37 76 l-25 32 39 24 c21 14 66
39 100 56 72 36 99 69 82 100 -12 23 -64 53 -127 71 -45 14 -63 43 -63 102 0
33 34 58 115 84 65 21 80 36 95 88 15 54 0 87 -71 156 -43 42 -49 52 -49 89 0
23 5 51 11 62 9 18 17 19 52 13 23 -3 58 -17 77 -30 19 -13 40 -24 47 -24 6 0
24 18 40 39 59 83 133 167 174 201 24 19 68 56 97 82 29 27 58 48 65 48 8 0
45 -11 83 -23z"/>
<path d="M4339 11696 l-33 -64 18 -39 c9 -22 28 -53 41 -69 22 -27 24 -28 42
-12 10 10 34 49 53 89 l35 71 -48 44 c-27 24 -55 44 -62 44 -7 0 -28 -29 -46
-64z m91 -43 c0 -7 -9 -29 -19 -49 l-20 -36 -16 33 c-17 31 -17 35 0 66 17 31
19 32 37 17 10 -10 18 -23 18 -31z"/>
<path d="M11700 11504 c-72 -48 -100 -74 -100 -93 0 -9 30 -35 65 -58 56 -37
72 -43 119 -43 40 0 55 4 60 16 8 22 7 147 -2 159 -10 15 -68 55 -79 55 -4 0
-33 -16 -63 -36z m100 -91 c0 -52 0 -53 -30 -53 -25 0 -110 43 -110 56 0 2 23
19 51 38 43 29 55 33 70 23 15 -9 19 -24 19 -64z"/>
<path d="M11710 11239 c-35 -19 -68 -48 -92 -81 -32 -43 -38 -58 -38 -102 0
-29 6 -59 13 -68 17 -21 71 -38 123 -38 39 0 50 6 118 67 84 75 122 142 111
194 -10 44 -40 59 -115 59 -53 0 -75 -6 -120 -31z m175 -23 c17 -12 18 -18 7
-54 -9 -30 -30 -56 -82 -102 -72 -64 -82 -68 -141 -57 -32 7 -37 12 -42 44 -5
30 -1 43 26 80 55 77 182 126 232 89z"/>
<path d="M10924 10977 c-53 -31 -162 -130 -181 -164 -38 -68 -56 -149 -49
-222 16 -179 20 -191 67 -191 42 0 64 28 78 100 11 57 18 69 62 109 53 48 55
57 37 126 -10 36 -10 49 0 63 27 37 83 165 78 178 -7 17 -63 18 -92 1z m20
-73 c-8 -19 -28 -53 -44 -75 l-28 -40 15 -55 16 -55 -47 -48 c-40 -41 -50 -58
-62 -115 -15 -65 -34 -89 -34 -42 0 13 -7 43 -16 67 -17 48 -13 96 13 187 15
54 43 88 141 175 53 46 65 47 46 1z"/>
<path d="M3807 10708 c-64 -80 -97 -151 -97 -206 0 -57 -17 -77 -77 -88 -28
-5 -42 0 -95 40 l-62 46 -91 0 c-90 0 -93 -1 -139 -35 -50 -39 -50 -39 -36
-115 10 -52 9 -54 -24 -97 -18 -24 -46 -68 -62 -97 l-28 -54 49 -60 c27 -34
65 -68 85 -77 l35 -16 -55 -58 c-30 -32 -73 -71 -95 -87 -22 -16 -62 -52 -90
-81 -49 -52 -51 -54 -130 -64 -108 -15 -120 -28 -64 -69 24 -17 51 -36 59 -40
12 -8 6 -17 -33 -51 -72 -62 -74 -71 -30 -120 21 -23 55 -53 75 -66 33 -20 38
-28 38 -62 0 -55 17 -65 92 -57 35 4 131 9 213 11 83 1 200 8 260 14 61 6 137
11 170 11 33 0 81 8 107 17 45 16 51 16 103 -1 l56 -17 65 60 c75 69 124 143
164 253 16 42 43 104 59 137 38 73 38 96 6 167 -30 64 -31 94 -7 122 24 29
114 62 170 62 26 0 52 4 58 8 7 4 29 36 49 71 36 62 38 67 26 105 -29 102 -71
273 -71 289 0 36 -42 64 -109 71 -95 11 -110 20 -108 69 2 37 -1 42 -28 51
-16 5 -58 20 -92 33 -51 19 -80 23 -172 23 l-110 0 -34 -42z m299 -26 c21 -10
52 -22 67 -26 22 -5 27 -11 22 -24 -20 -48 -19 -51 39 -77 31 -14 72 -25 91
-25 72 0 80 -9 104 -117 12 -54 32 -127 44 -161 l21 -64 -29 -53 c-28 -53 -29
-54 -84 -60 -74 -9 -172 -47 -194 -77 -33 -44 -33 -90 2 -164 l31 -66 -31 -62
c-17 -33 -43 -92 -56 -131 -39 -106 -80 -174 -144 -237 l-59 -56 -47 14 c-42
13 -54 13 -103 0 -66 -18 -318 -38 -530 -41 -85 -2 -175 -8 -200 -14 -25 -6
-48 -11 -52 -11 -5 0 -8 20 -8 45 0 41 -3 46 -37 64 -21 11 -52 34 -70 53 -37
39 -34 46 40 97 26 17 47 40 47 49 0 9 -19 29 -42 44 l-42 27 54 7 c50 6 59
12 105 61 28 30 72 71 98 90 27 20 67 55 90 79 l42 44 69 -10 c67 -10 96 -4
96 21 0 5 -49 33 -108 63 -84 42 -117 65 -146 100 l-38 47 34 52 c18 28 46 66
61 84 27 31 28 34 18 89 -6 32 -11 61 -11 66 0 4 18 20 40 34 36 24 47 26 105
21 66 -5 81 -12 167 -79 25 -20 31 -20 82 -9 74 17 116 62 116 127 0 52 37
132 84 183 l31 33 96 -5 c67 -3 107 -11 135 -25z"/>
<path d="M10451 10664 c-30 -38 -141 -404 -141 -464 0 -50 20 -100 40 -100 30
0 77 66 85 119 4 25 18 80 32 121 39 112 61 277 44 323 -13 34 -34 35 -60 1z
m15 -123 c-9 -16 -16 -48 -16 -70 0 -22 -8 -62 -19 -88 -10 -26 -26 -81 -35
-122 -20 -87 -27 -102 -36 -76 -8 22 14 108 81 325 20 63 34 96 37 83 2 -12
-4 -35 -12 -52z"/>
<path d="M9120 10088 c-19 -12 -84 -46 -144 -75 l-109 -54 6 -97 c10 -157 15
-166 102 -206 41 -19 75 -39 75 -44 0 -17 -43 -21 -110 -12 -100 14 -170 -12
-156 -58 3 -10 23 -35 44 -55 41 -40 99 -57 197 -57 44 0 57 5 91 33 21 18 51
41 67 50 30 19 36 57 16 101 -9 19 -8 29 5 47 23 33 20 69 -9 112 -28 40 -26
57 5 57 70 0 61 177 -13 258 -25 27 -24 27 -67 0z m62 -79 c9 -19 17 -54 17
-79 1 -41 -2 -46 -31 -60 -48 -23 -52 -50 -19 -112 l29 -54 -21 -28 c-20 -27
-20 -31 -6 -71 l16 -42 -54 -42 c-50 -38 -57 -41 -118 -41 -69 0 -121 16 -144
44 -26 31 -1 40 83 29 81 -10 162 5 172 32 12 29 -29 74 -98 107 -37 18 -70
40 -73 48 -4 8 -9 56 -12 105 l-5 90 113 56 c63 31 119 55 124 54 6 -1 18 -17
27 -36z"/>
<path d="M4618 10023 c-50 -52 -57 -85 -24 -117 30 -30 53 -32 95 -8 24 13 36
31 52 79 11 35 18 67 14 73 -3 5 -28 10 -54 10 -41 0 -51 -5 -83 -37z m82 -17
c0 -21 -26 -67 -41 -71 -20 -7 -39 1 -39 14 0 18 43 61 61 61 10 0 19 -2 19
-4z"/>
<path d="M8615 9845 c-7 -5 -20 -30 -29 -54 -17 -44 -17 -44 10 -83 31 -44 76
-85 112 -101 22 -10 28 -7 63 31 24 25 39 51 39 66 0 46 -21 125 -37 138 -19
15 -140 18 -158 3z m136 -62 c14 -34 9 -85 -9 -108 -18 -23 -19 -23 -46 -6
-14 10 -37 32 -50 50 -20 27 -23 38 -15 60 9 24 13 26 61 25 40 -2 54 -6 59
-21z"/>
<path d="M9827 9683 c-4 -3 -7 -30 -7 -59 0 -46 4 -55 31 -79 25 -21 40 -25
73 -23 l41 3 3 57 3 57 -44 25 c-42 25 -86 33 -100 19z m93 -90 c0 -26 -16
-29 -43 -8 -13 9 -17 20 -12 34 5 17 9 19 31 9 15 -7 24 -19 24 -35z"/>
<path d="M21042 8231 l-47 -49 -124 -7 -125 -6 -98 -65 c-63 -42 -107 -79
-122 -103 -14 -21 -46 -65 -73 -97 -27 -32 -68 -90 -93 -129 -24 -38 -78 -110
-120 -160 -42 -49 -130 -178 -197 -286 -140 -228 -167 -300 -176 -479 -3 -58
-13 -163 -23 -233 -10 -75 -13 -132 -8 -137 5 -5 67 -34 138 -65 71 -30 158
-77 193 -102 61 -45 63 -49 63 -90 0 -37 11 -61 75 -162 67 -106 86 -127 175
-200 55 -45 139 -104 186 -132 47 -27 123 -82 169 -123 46 -41 137 -109 202
-151 65 -42 134 -92 153 -110 19 -18 78 -61 130 -94 93 -60 96 -61 165 -61 38
0 110 -7 158 -17 l88 -17 -74 -75 c-68 -70 -76 -82 -91 -143 -9 -37 -16 -74
-16 -82 0 -8 27 -70 60 -138 57 -118 59 -127 61 -207 l2 -83 -34 -26 c-48 -37
-49 -39 -49 -112 0 -52 6 -78 30 -129 68 -142 159 -240 282 -302 106 -54 148
-59 428 -58 212 1 265 -1 315 -15 33 -9 67 -24 76 -32 14 -13 44 -11 262 15
134 17 257 35 271 41 18 7 26 17 26 34 0 25 0 25 -42 11 -24 -7 -141 -25 -260
-40 -204 -25 -219 -25 -248 -10 -70 36 -163 46 -419 44 -225 -1 -251 0 -311
19 -116 38 -208 108 -281 214 -58 84 -79 140 -79 208 0 56 1 58 40 84 l40 26
0 97 0 97 -60 128 c-33 70 -60 136 -60 146 0 10 7 41 15 68 12 39 31 65 100
134 47 46 85 92 85 102 0 12 -15 19 -57 28 -32 6 -86 18 -121 26 -35 8 -94 14
-131 14 -66 0 -69 1 -172 68 -57 38 -112 78 -123 90 -10 12 -69 54 -130 94
-61 39 -151 107 -201 150 -49 44 -128 101 -175 128 -47 27 -128 85 -181 129
-83 68 -106 94 -163 185 -58 93 -66 111 -66 155 l0 50 -77 56 c-43 31 -129 78
-193 106 -63 28 -119 54 -124 59 -5 5 -2 57 7 122 9 62 19 162 22 222 11 176
32 232 175 461 69 110 152 231 185 270 34 38 94 117 133 175 40 58 89 126 110
152 20 26 45 59 56 73 10 15 57 52 103 82 l85 56 122 6 c132 8 152 15 191 65
38 49 68 51 139 9 54 -33 62 -43 96 -117 20 -45 44 -114 53 -155 19 -83 65
-176 108 -217 23 -22 39 -29 71 -29 37 0 46 6 89 54 l47 53 138 34 c153 39
141 42 174 -44 24 -64 25 -98 4 -106 -9 -3 -118 -9 -243 -12 l-226 -6 -110
-65 -110 -65 -133 -11 c-103 -8 -135 -14 -141 -26 -13 -24 -43 -300 -37 -327
4 -14 29 -41 57 -61 l51 -37 -43 -13 c-24 -7 -78 -30 -119 -51 -64 -32 -75
-41 -78 -66 -3 -23 5 -37 46 -75 42 -40 66 -52 142 -75 71 -22 103 -38 143
-72 105 -89 233 -191 252 -201 50 -26 265 -62 400 -67 77 -3 153 -9 168 -13
l28 -8 -30 -23 c-42 -31 -40 -63 7 -154 39 -76 129 -208 140 -208 15 1 150 38
161 44 6 4 11 36 11 75 0 142 5 154 93 247 44 47 89 90 99 95 29 15 89 -25
179 -118 65 -68 95 -89 203 -148 122 -66 186 -111 186 -133 0 -6 -26 -44 -59
-84 -32 -40 -70 -97 -85 -125 -14 -29 -29 -53 -31 -53 -3 0 -81 38 -174 85
-107 53 -182 85 -202 85 -23 0 -41 -10 -69 -37 -40 -41 -84 -143 -77 -179 7
-37 240 -363 260 -364 10 0 35 9 56 19 l38 20 89 -67 c97 -74 101 -81 103
-185 1 -60 3 -69 24 -77 22 -10 287 -70 307 -70 5 0 10 10 10 23 0 20 -10 24
-142 53 l-143 30 -10 80 c-6 43 -16 89 -23 100 -10 19 -78 73 -181 144 l-33
23 -44 -21 -44 -22 -102 145 c-57 80 -107 157 -113 171 -8 21 -4 37 23 88 52
101 51 101 261 -4 99 -50 184 -90 189 -90 15 0 59 53 82 100 12 25 41 68 65
95 23 28 47 60 53 72 17 31 14 75 -6 100 -22 27 -104 79 -210 132 -64 32 -101
60 -165 125 -141 143 -195 165 -265 109 -20 -17 -69 -66 -108 -109 l-71 -80
-7 -104 c-3 -57 -8 -105 -10 -107 -2 -3 -27 -10 -55 -18 l-51 -13 -55 82 c-87
131 -107 196 -61 196 54 0 59 67 7 95 -30 15 -203 35 -308 35 -35 0 -113 12
-175 26 -123 29 -138 39 -330 204 -67 58 -87 69 -169 95 -66 21 -105 40 -131
64 -21 18 -38 37 -38 41 0 14 159 80 192 80 46 0 60 12 56 46 -2 21 -18 39
-60 72 -52 39 -58 47 -58 80 1 45 27 242 33 248 2 3 60 10 128 16 l124 11 102
63 101 63 219 6 c120 4 233 11 250 17 38 11 63 42 63 76 0 32 -57 177 -76 193
-15 12 -68 2 -311 -63 -22 -6 -43 -23 -63 -53 -18 -26 -42 -48 -56 -51 -52
-13 -121 89 -148 221 -8 39 -33 109 -55 156 -39 82 -45 89 -107 128 -51 32
-75 41 -111 41 -41 0 -49 -4 -91 -49z"/>
<path d="M7795 4115 c-32 -60 -34 -61 -117 -44 -49 10 -59 9 -96 -10 -52 -27
-132 -132 -132 -174 0 -35 35 -198 62 -290 17 -58 25 -71 61 -95 23 -16 57
-35 76 -42 33 -13 35 -12 56 14 12 16 27 45 34 65 6 21 24 47 42 60 35 26 70
97 94 193 13 48 16 92 12 183 -7 200 -36 244 -92 140z m47 -67 c2 -13 3 -66 3
-118 -2 -130 -38 -240 -99 -298 -25 -24 -47 -57 -54 -81 -7 -22 -16 -42 -21
-45 -4 -3 -28 8 -53 23 -48 30 -68 71 -83 166 -4 22 -13 62 -21 89 -23 80 -18
112 24 172 49 71 71 79 163 64 l73 -12 25 30 c32 37 38 38 43 10z"/>
<path d="M7610 3354 c-96 -60 -212 -114 -244 -114 -23 0 -25 4 -28 53 -4 71
-24 68 -65 -8 -45 -83 -95 -213 -91 -237 2 -13 15 -25 38 -32 34 -11 35 -12
38 -70 3 -49 0 -62 -19 -82 l-23 -24 22 -45 c18 -38 22 -63 22 -145 l0 -99
-40 -37 c-47 -43 -49 -59 -15 -105 13 -19 37 -52 51 -74 36 -53 52 -64 94 -65
43 0 146 48 179 84 14 14 29 26 33 26 5 0 34 -20 65 -45 88 -72 122 -58 147
60 23 112 46 290 46 363 0 48 6 79 20 107 24 47 26 136 5 300 -19 154 -31 185
-85 213 -24 12 -51 22 -60 22 -9 0 -49 -21 -90 -46z m138 -21 c26 -24 40 -69
52 -172 18 -163 16 -244 -8 -285 -18 -30 -22 -53 -22 -122 0 -135 -43 -403
-66 -411 -7 -2 -32 14 -58 36 -25 22 -55 42 -66 46 -22 7 -29 3 -95 -49 -40
-33 -130 -67 -152 -59 -8 3 -31 30 -51 61 -20 30 -41 60 -46 66 -5 7 7 27 34
54 l42 42 -6 118 c-4 64 -12 130 -18 145 -8 21 -8 34 1 50 7 14 11 54 9 102
-3 80 -3 80 -35 94 -18 8 -33 18 -33 23 0 5 14 38 30 75 23 51 33 64 42 55 7
-7 31 -12 55 -12 45 0 156 49 278 123 68 42 84 44 113 20z"/>
<path d="M5769 3161 c-96 -31 -93 -57 15 -155 46 -42 93 -76 104 -76 10 0 32
10 47 22 26 20 27 24 23 94 -5 96 -22 116 -105 120 -32 2 -70 0 -84 -5z m129
-53 c7 -7 12 -38 12 -70 0 -47 -3 -58 -17 -58 -14 0 -132 102 -141 122 -8 18
128 24 146 6z"/>
<path d="M5405 3107 c-44 -18 -107 -49 -140 -68 -51 -30 -60 -39 -60 -64 0
-23 10 -37 49 -67 28 -20 56 -48 63 -62 17 -32 101 -76 144 -76 89 0 208 143
184 220 -4 12 -29 32 -60 47 -38 19 -56 34 -60 52 -7 27 -23 51 -34 51 -3 0
-42 -15 -86 -33z m79 -52 c5 -18 22 -33 61 -52 73 -36 73 -58 2 -130 -39 -38
-62 -53 -81 -53 -39 0 -103 36 -120 68 -8 15 -33 38 -55 52 -23 14 -41 28 -41
33 0 9 197 107 216 107 6 0 15 -11 18 -25z"/>
<path d="M4860 2863 c-63 -22 -98 -47 -119 -84 l-23 -41 31 -28 c18 -17 36
-47 43 -74 10 -36 17 -46 33 -46 22 0 48 24 76 69 8 13 35 32 59 41 55 22 56
36 6 113 -37 58 -57 67 -106 50z m69 -79 c12 -20 21 -37 19 -39 -2 -1 -18 -7
-36 -15 -18 -7 -40 -26 -48 -41 -15 -30 -34 -39 -34 -16 0 7 -11 29 -25 50
-14 20 -23 42 -19 48 8 14 84 48 106 49 9 0 26 -16 37 -36z"/>
<path d="M13185 2712 c-14 -20 -25 -41 -25 -47 0 -6 15 -26 34 -44 30 -29 38
-32 81 -29 l49 3 13 50 c23 89 24 87 -79 99 -46 5 -48 4 -73 -32z m91 -18 c16
-4 20 -11 16 -30 -3 -19 -11 -24 -33 -24 -31 0 -45 19 -35 45 6 16 18 18 52 9z"/>
<path d="M13590 2468 c-42 -7 -64 -18 -92 -46 -21 -20 -38 -41 -38 -48 0 -47
246 -110 278 -71 8 9 2 34 -21 92 -36 89 -36 89 -127 73z m81 -86 l18 -42 -25
0 c-44 0 -134 30 -134 45 0 18 11 24 62 34 58 12 59 11 79 -37z"/>
<path d="M12651 2169 c-11 -29 -21 -55 -21 -60 0 -4 28 -24 63 -45 34 -21 76
-47 92 -59 17 -12 54 -31 84 -41 46 -16 59 -27 90 -74 l36 -55 63 -3 c76 -4
80 3 56 88 -16 58 -21 65 -111 140 -85 71 -100 79 -158 90 -41 8 -80 23 -105
41 -22 16 -46 29 -54 29 -7 0 -23 -23 -35 -51z m172 -63 c53 -11 78 -23 129
-64 85 -68 107 -92 114 -130 6 -29 4 -32 -18 -32 -19 0 -33 12 -59 51 -29 44
-43 55 -89 72 -65 23 -210 114 -210 132 0 23 13 24 40 5 15 -11 57 -26 93 -34z"/>
<path d="M13524 2114 c-6 -24 22 -192 37 -215 14 -23 39 1 74 70 19 39 35 75
35 80 0 13 -106 91 -124 91 -9 0 -19 -12 -22 -26z m86 -77 c0 -7 -7 -22 -15
-33 -14 -19 -14 -19 -15 1 0 11 -3 31 -7 44 -5 21 -4 22 16 12 11 -7 21 -17
21 -24z"/>
<path d="M1920 1960 c-42 -4 -85 -10 -96 -14 -41 -13 -177 -177 -218 -263 -38
-80 -41 -82 -103 -111 -57 -27 -69 -37 -129 -123 -81 -115 -106 -143 -160
-174 -67 -39 -215 -85 -275 -85 -59 0 -127 -27 -204 -80 -25 -17 -66 -41 -92
-53 -134 -62 -183 -127 -217 -289 -6 -25 -11 -28 -44 -28 -20 0 -55 5 -76 11
-36 10 -41 9 -55 -10 -15 -19 -20 -20 -48 -10 -35 12 -63 6 -155 -33 -39 -17
-48 -25 -48 -45 0 -16 5 -23 13 -20 6 3 42 17 80 32 62 25 71 26 115 15 43
-11 48 -10 63 9 15 18 22 19 44 11 14 -5 53 -10 85 -10 54 0 60 2 64 22 3 13
10 47 15 76 13 62 50 139 83 168 12 12 59 40 103 63 44 23 112 59 150 81 53
30 81 40 116 40 59 0 202 41 280 80 73 37 115 79 197 194 56 80 69 92 130 123
68 34 69 34 110 121 45 96 157 231 202 245 14 4 68 8 120 10 l95 2 5 -57 c4
-47 10 -61 30 -75 14 -9 48 -38 75 -63 123 -113 118 -110 200 -110 40 0 77 -4
80 -10 11 -18 85 -32 116 -21 22 8 32 7 44 -5 8 -8 40 -24 72 -35 l58 -20 20
24 c11 12 31 38 45 56 21 27 30 32 48 27 16 -6 22 -15 22 -38 0 -28 50 -131
69 -142 4 -3 57 -14 118 -25 l110 -20 99 23 c77 18 135 41 259 103 199 100
268 116 350 83 l53 -21 78 39 c45 23 107 44 146 51 36 6 99 26 140 45 107 48
204 53 413 20 172 -27 253 -27 403 2 58 10 91 11 155 2 45 -6 123 -8 175 -6
74 4 107 1 154 -13 33 -11 74 -19 92 -19 52 0 125 -29 144 -58 33 -49 80 -88
121 -100 36 -11 55 -10 157 13 86 19 130 24 172 20 40 -5 70 -2 102 10 57 20
152 11 195 -19 24 -17 50 -22 140 -27 96 -5 122 -11 205 -44 91 -36 100 -38
220 -39 120 -1 129 1 230 36 123 43 265 58 336 36 57 -18 144 -117 144 -164 0
-30 4 -34 38 -43 63 -18 148 -9 225 24 15 6 17 1 17 -35 0 -37 -6 -48 -57
-102 -69 -71 -101 -90 -168 -98 l-50 -5 -3 -70 c-3 -67 -1 -74 42 -149 25 -43
53 -88 64 -100 45 -51 62 -87 68 -144 10 -88 -16 -127 -127 -198 -69 -43 -98
-69 -143 -129 -49 -65 -58 -85 -76 -164 -24 -109 -25 -141 -5 -141 20 0 29 22
50 123 24 120 79 194 203 274 95 61 102 68 132 131 17 36 20 54 14 105 -7 68
-20 99 -60 147 -15 18 -48 68 -74 112 -37 66 -45 87 -42 119 3 31 8 39 23 39
43 0 98 34 171 107 85 84 98 117 78 191 -13 51 -22 57 -59 37 -46 -24 -148
-44 -179 -36 -15 4 -29 16 -31 27 -11 60 -118 168 -186 189 -79 23 -242 5
-370 -41 -85 -31 -112 -36 -180 -35 -107 1 -170 14 -273 56 -76 31 -97 35
-175 35 -72 0 -96 4 -122 20 -17 11 -63 24 -102 30 -58 8 -79 7 -118 -6 -31
-11 -65 -15 -99 -11 -34 3 -86 -2 -147 -15 -52 -11 -106 -22 -121 -25 -38 -7
-116 32 -124 62 -13 51 -81 87 -190 101 -33 4 -77 13 -98 20 -26 9 -84 14
-170 14 -72 0 -158 3 -191 7 -40 6 -80 4 -120 -4 -126 -26 -251 -27 -395 -3
-89 14 -174 21 -248 21 -109 -2 -117 -3 -184 -37 -42 -21 -101 -41 -149 -49
-51 -9 -104 -27 -148 -50 l-68 -36 -47 21 c-44 19 -52 19 -130 7 -71 -12 -106
-26 -238 -94 -120 -62 -176 -85 -249 -102 -92 -21 -95 -21 -192 -5 l-97 18
-30 48 c-20 31 -30 62 -30 87 0 35 -3 39 -39 49 -60 18 -69 15 -108 -39 -35
-48 -38 -50 -72 -44 -20 4 -46 16 -58 27 -18 17 -29 19 -71 13 -36 -5 -58 -2
-79 9 -17 8 -65 18 -107 22 l-78 7 -71 66 c-40 37 -83 74 -97 84 -22 15 -25
24 -23 67 2 57 -14 80 -55 80 -15 0 -36 2 -47 4 -11 2 -54 0 -95 -4z"/>
<path d="M11598 1881 c-36 -29 -71 -96 -55 -108 25 -20 82 -33 143 -33 74 0
77 5 36 71 -50 77 -88 98 -124 70z m57 -58 c33 -37 32 -47 -7 -39 -43 9 -52
19 -36 45 7 11 14 21 15 21 1 0 14 -12 28 -27z"/>
<path d="M8698 1845 c-20 -14 -48 -25 -62 -25 -52 0 -77 -63 -56 -141 8 -30
27 -60 63 -96 l51 -53 72 0 c52 0 75 -4 84 -15 18 -22 264 -183 314 -205 22
-11 68 -27 101 -37 57 -17 60 -20 72 -63 15 -53 35 -70 81 -70 20 0 57 -14 93
-35 63 -36 135 -48 144 -22 3 6 9 43 14 81 7 51 18 80 40 112 17 23 31 48 31
56 0 7 -16 36 -36 65 -25 37 -38 68 -43 108 l-8 56 52 63 c80 99 107 149 103
199 l-3 42 -40 -2 c-61 -4 -230 -51 -303 -84 -54 -24 -78 -29 -145 -29 -73 0
-84 3 -136 34 -140 84 -146 86 -303 86 -136 0 -145 -1 -180 -25z m428 -85
c112 -60 113 -60 196 -60 72 0 91 4 148 31 74 36 281 91 293 79 11 -10 -29
-74 -101 -163 l-55 -68 6 -64 c7 -68 23 -114 58 -156 l21 -26 -31 -44 c-23
-33 -33 -60 -37 -106 -8 -75 -20 -79 -94 -34 -26 16 -68 32 -92 36 -44 7 -45
8 -62 60 l-16 53 -83 22 c-45 12 -98 31 -117 42 -70 41 -236 152 -276 185 -38
30 -47 33 -111 33 -70 0 -71 1 -106 39 -54 60 -64 143 -17 149 13 2 40 15 59
28 33 22 45 24 170 24 l134 0 113 -60z"/>
<path d="M13120 1764 c0 -44 34 -92 72 -102 44 -12 58 1 58 53 0 52 -13 64
-79 72 -51 6 -51 6 -51 -23z m75 -35 c11 -17 -1 -21 -15 -4 -8 9 -8 15 -2 15
6 0 14 -5 17 -11z"/>
<path d="M13800 1770 c0 -11 7 -36 14 -55 15 -34 17 -35 70 -35 55 0 56 1 71
36 29 70 26 74 -70 74 -79 0 -85 -1 -85 -20z m110 -30 c0 -5 -11 -10 -24 -10
-14 0 -28 5 -31 10 -4 6 7 10 24 10 17 0 31 -4 31 -10z"/>
<path d="M11615 1626 c-10 -79 2 -96 70 -96 49 0 56 3 79 33 15 19 26 39 26
46 0 13 -122 71 -150 71 -15 0 -20 -11 -25 -54z m104 -43 c-6 -7 -22 -13 -35
-13 -20 0 -24 5 -24 30 l0 30 35 -17 c27 -13 32 -19 24 -30z"/>
<path d="M14440 1164 c-41 -23 -87 -49 -102 -58 -26 -14 -27 -16 -21 -88 8
-102 17 -109 85 -63 49 32 62 48 107 135 71 136 60 149 -69 74z m6 -92 c-14
-27 -36 -56 -50 -65 -25 -17 -25 -17 -32 19 -3 19 -5 36 -3 38 4 4 102 55 107
56 1 0 -9 -22 -22 -48z"/>
<path d="M14076 849 c-9 -29 -16 -63 -16 -76 0 -24 66 -133 81 -133 15 0 39
44 38 70 0 14 -12 61 -27 105 -34 101 -54 109 -76 34z m44 -84 c0 -8 -2 -15
-4 -15 -2 0 -6 7 -10 15 -3 8 -1 15 4 15 6 0 10 -7 10 -15z"/>
<path d="M9244 836 c-6 -16 31 -87 75 -143 24 -31 30 -33 89 -33 59 0 63 2 73
27 13 35 8 74 -11 83 -55 28 -161 71 -188 76 -24 5 -33 3 -38 -10z m156 -86
c51 -26 51 -40 1 -40 -39 0 -52 10 -85 67 -8 15 19 6 84 -27z"/>
<path d="M12823 719 c-18 -12 -33 -24 -33 -27 0 -4 -9 -45 -20 -91 l-19 -85
35 -33 35 -33 137 -1 c178 -1 235 -9 267 -39 14 -13 25 -32 25 -42 0 -37 40
-42 172 -23 68 9 152 26 188 37 75 23 149 18 188 -12 40 -32 57 -13 82 91 18
80 20 98 9 147 -19 89 -21 89 -129 32 l-95 -50 -17 23 c-16 23 -21 24 -65 15
-59 -11 -131 -3 -201 23 -65 23 -94 24 -135 2 -18 -9 -54 -22 -82 -28 l-50
-12 -47 43 c-50 47 -76 53 -118 29 -35 -20 -38 -19 -54 20 -17 40 -29 43 -73
14z m43 -64 c11 -43 26 -47 83 -23 l52 21 44 -43 c44 -43 44 -43 100 -36 31 3
74 15 95 26 47 24 79 25 128 4 48 -21 163 -34 207 -24 28 6 35 5 40 -10 14
-45 31 -44 121 4 47 25 90 46 95 46 24 0 16 -147 -10 -188 -4 -6 -30 -4 -70 6
-60 15 -67 14 -135 -6 -39 -11 -125 -29 -190 -38 -97 -15 -120 -16 -124 -5
-10 30 -66 81 -100 91 -20 6 -111 14 -202 17 -203 7 -204 7 -184 96 8 34 16
68 19 75 7 20 24 14 31 -13z"/>
<path d="M21416 164 c-33 -33 -10 -84 38 -84 20 0 46 28 46 50 0 43 -54 65
-84 34z m64 -9 c26 -32 -13 -81 -47 -59 -10 6 -19 19 -21 28 -8 38 43 61 68
31z"/>
<path d="M21426 145 c-8 -23 4 -45 25 -45 10 0 19 4 19 9 0 5 -8 8 -17 7 -10
0 -18 6 -18 14 0 8 8 14 17 14 10 -1 15 2 12 7 -8 14 -31 10 -38 -6z"/>
<path d="M21551 128 c2 -52 2 -52 8 -13 l6 40 14 -40 14 -40 18 40 18 39 4
-39 c3 -36 4 -34 5 13 2 63 -10 67 -28 10 l-13 -43 -14 43 c-20 57 -33 53 -32
-10z"/>
<path d="M21746 133 c-18 -53 -20 -66 -5 -40 5 9 19 17 29 17 10 0 24 -8 29
-17 16 -27 13 -4 -5 44 -9 24 -20 43 -24 43 -5 0 -15 -21 -24 -47z m37 7 c4
-15 0 -20 -14 -20 -17 0 -18 3 -9 20 6 11 12 20 14 20 2 0 6 -9 9 -20z"/>
<path d="M21828 167 c-7 -22 7 -80 20 -83 7 -1 8 0 2 3 -12 6 -13 60 -1 65 5
2 3 8 -4 15 -10 9 -14 9 -17 0z"/>
<path d="M22132 130 c-1 -47 1 -51 10 -30 l10 25 11 -22 c5 -13 14 -23 20 -23
5 0 1 12 -8 27 -17 25 -17 27 1 40 10 7 13 13 7 13 -6 0 -17 -7 -24 -17 -13
-15 -15 -13 -20 13 -5 21 -7 14 -7 -26z"/>
<path d="M22400 171 c0 -5 -10 -11 -22 -13 -19 -2 -23 -9 -23 -38 0 -31 3 -35
28 -38 26 -3 27 -2 27 47 0 28 -2 51 -5 51 -3 0 -5 -4 -5 -9z m-5 -51 c0 -13
-6 -25 -12 -27 -16 -6 -27 21 -19 43 9 23 31 11 31 -16z"/>
<path d="M22968 168 c-2 -7 -1 -31 3 -53 l6 -40 2 38 c0 22 6 37 14 37 9 0 8
3 -2 9 -11 7 -11 9 0 14 10 4 10 6 -2 6 -9 1 -19 -5 -21 -11z"/>
<path d="M21872 118 c1 -41 1 -41 5 -8 3 19 10 38 16 42 8 5 6 8 -5 8 -15 0
-18 -8 -16 -42z"/>
<path d="M21922 148 c-23 -23 -7 -68 25 -68 7 0 18 11 25 25 18 40 -20 73 -50
43z m42 -13 c8 -21 -3 -45 -20 -45 -18 0 -28 24 -20 45 3 8 12 15 20 15 7 0
16 -7 20 -15z"/>
<path d="M21997 153 c-15 -14 -6 -31 18 -37 15 -4 23 -11 19 -17 -3 -6 -15 -9
-25 -6 -11 3 -17 1 -13 -4 9 -15 41 -10 48 6 4 10 -3 20 -19 27 -30 13 -33 33
-5 25 11 -3 18 -1 14 4 -6 11 -28 12 -37 2z"/>
<path d="M22078 153 l22 -4 -20 -26 c-28 -35 -25 -43 13 -42 30 2 30 2 4 6
l-27 4 26 35 26 34 -33 -1 c-24 -1 -27 -3 -11 -6z"/>
<path d="M22204 146 c-3 -8 -4 -25 -2 -38 2 -17 9 -23 28 -23 22 0 25 4 25 35
0 29 -4 36 -23 38 -13 2 -24 -3 -28 -12z m41 -26 c0 -13 -6 -25 -12 -27 -16
-6 -27 21 -19 43 9 23 31 11 31 -16z"/>
<path d="M22431 117 l2 -42 6 35 c5 31 9 34 43 36 34 3 37 1 35 -24 -2 -16 -8
-27 -17 -27 -8 0 -14 6 -12 13 1 6 -3 12 -9 12 -6 0 -9 -8 -7 -17 2 -12 13
-19 33 -20 29 -1 30 0 27 37 l-4 39 -49 -1 -49 0 1 -41z"/>
<path d="M22556 130 c8 -48 21 -59 30 -25 l7 28 12 -29 12 -29 12 38 c7 21 11
40 8 43 -2 3 -8 -8 -12 -23 l-7 -28 -13 30 -12 30 -8 -30 -8 -30 -14 30 -13
30 6 -35z"/>
<path d="M22650 120 c0 -22 5 -40 10 -40 6 0 10 18 10 40 0 22 -4 40 -10 40
-5 0 -10 -18 -10 -40z"/>
<path d="M22691 115 l2 -40 6 34 c8 48 31 53 31 7 0 -20 5 -36 10 -36 11 0 13
24 4 57 -5 16 -13 22 -30 21 -21 -2 -24 -7 -23 -43z"/>
<path d="M22765 140 c-9 -30 4 -60 26 -60 10 0 19 -5 19 -11 0 -7 -10 -9 -27
-4 -21 5 -25 4 -17 -5 7 -7 20 -10 30 -8 15 2 20 14 22 56 3 50 2 52 -22 52
-16 0 -27 -7 -31 -20z m40 -20 c0 -13 -6 -25 -12 -27 -16 -6 -27 21 -19 43 9
23 31 11 31 -16z"/>
<path d="M22890 141 c-13 -26 4 -64 27 -59 25 5 40 35 27 56 -16 25 -41 26
-54 3z m45 -21 c0 -15 -6 -26 -16 -28 -19 -3 -31 21 -22 43 9 25 38 13 38 -15z"/>
<path d="M23050 145 c-24 -29 14 -85 41 -58 9 9 7 11 -8 7 -13 -4 -22 0 -26
10 -5 12 0 16 24 16 27 0 29 2 19 20 -13 24 -33 26 -50 5z m40 -5 c0 -5 -9
-10 -21 -10 -11 0 -17 5 -14 10 3 6 13 10 21 10 8 0 14 -4 14 -10z"/>
<path d="M23123 125 c2 -36 5 -40 30 -41 25 -1 27 1 26 40 l-2 41 -6 -35 c-4
-22 -12 -35 -21 -35 -9 0 -18 13 -22 35 l-6 35 1 -40z"/>
<path d="M22848 113 c7 -3 16 -2 19 1 4 3 -2 6 -13 5 -11 0 -14 -3 -6 -6z"/>
</g>
</svg>
